<svg aria-hidden="true" style="width:0;height:0;position:absolute;overflow:hidden" xmlns="http://www.w3.org/2000/svg"><defs><symbol id="icon-colours" viewBox="0 0 20 20"><path d="M3.179 5.998a1.005 1.005 0 0 0-1.408.132L.494 7.669a1.004 1.004 0 0 0 .131 1.407l7.888 6.542-3.807-8.354-1.527-1.266zm3.834-3.315-1.82.829a1.005 1.005 0 0 0-.495 1.324l4.25 9.325.213-9.179-.822-1.804c-.23-.5-.826-.723-1.326-.495zm7.198.204a1.003 1.003 0 0 0-.976-1.023l-2-.046a1.003 1.003 0 0 0-1.022.976l-.239 10.243 4.19-8.167.047-1.983zm4.98.95-1.779-.913a1.005 1.005 0 0 0-1.347.434L9.674 15.814a1.004 1.004 0 0 0 .434 1.347l1.779.913a1.003 1.003 0 0 0 1.346-.433l6.391-12.456a1.005 1.005 0 0 0-.433-1.348zm-6.392 12.456a1 1 0 1 1-1.78-.911 1 1 0 0 1 1.78.911z"/></symbol><symbol id="icon-menu" viewBox="0 0 20 20"><path d="M0 3h20v2H0V3zm0 6h20v2H0V9zm0 6h20v2H0v-2z"/></symbol><symbol id="icon-brush" viewBox="0 0 32 32"><path d="M27.555 8.42c-1.355 1.647-5.07 6.195-8.021 9.81l-3.747-3.804c3.389-3.016 7.584-6.744 9.1-8.079 2.697-2.377 5.062-3.791 5.576-3.213.322.32-.533 2.396-2.908 5.286zm-8.676 10.61a3529.531 3529.531 0 0 0-2.729 3.343l-4.436-4.323 3.304-2.939 3.861 3.919zm-3.39 4.153v-.012c-2.575 9.88-14.018 4.2-14.018 4.2s4.801.605 4.801-3.873c0-4.341 4.412-4.733 4.683-4.753l4.543 4.427a.106.106 0 0 1-.009.011z"/></symbol><symbol id="icon-eyedropper" viewBox="0 0 32 32"><path d="M30.828 1.172a4 4 0 0 0-5.657 0l-5.379 5.379-3.793-3.793-4.243 4.243 3.326 3.326L.328 25.081a1.123 1.123 0 0 0-.322.921h-.008v5a1 1 0 0 0 1 1h5.125c.288 0 .576-.11.795-.329l14.754-14.754 3.326 3.326 4.243-4.243-3.793-3.793 5.379-5.379a4 4 0 0 0 0-5.657zM5.409 30H2v-3.409l14.674-14.674 3.409 3.409L5.409 30z"/></symbol><symbol id="icon-paint-format" viewBox="0 0 32 32"><path d="M32 18V6h-6V4c0-1.1-.9-2-2-2H2C.9 2 0 2.9 0 4v6c0 1.1.9 2 2 2h22c1.1 0 2-.9 2-2V8h4v8H12v4h-1a1 1 0 0 0-1 1v10a1 1 0 0 0 1 1h4a1 1 0 0 0 1-1V21a1 1 0 0 0-1-1h-1v-2h18zM24 6H2V4h22v2z"/></symbol><symbol id="icon-undo" viewBox="0 0 32 32"><path d="M16 2A15.946 15.946 0 0 0 4.687 6.687L.001 2v12h12L7.516 9.515A11.962 11.962 0 0 1 16.001 6c6.627 0 12 5.373 12 12 0 3.584-1.572 6.801-4.063 9l2.646 3a15.96 15.96 0 0 0 5.417-12c0-8.837-7.163-16-16-16z"/></symbol><symbol id="icon-redo" viewBox="0 0 32 32"><path d="M0 18a15.96 15.96 0 0 0 5.417 12l2.646-3A11.973 11.973 0 0 1 4 18C4 11.373 9.373 6 16 6c3.314 0 6.314 1.343 8.485 3.515L20 14h12V2l-4.687 4.687A15.946 15.946 0 0 0 16 2C7.163 2 0 9.163 0 18z"/></symbol><symbol id="icon-spinner4" viewBox="0 0 32 32"><path d="M6 16c0-.381.022-.756.063-1.126L.282 12.996A16.07 16.07 0 0 0-.001 16c0 4.601 1.943 8.748 5.052 11.666l3.571-4.916a9.964 9.964 0 0 1-2.623-6.751zm20 0a9.964 9.964 0 0 1-2.623 6.751l3.571 4.916A15.954 15.954 0 0 0 32 16.001a16.07 16.07 0 0 0-.283-3.004l-5.781 1.878c.041.37.063.745.063 1.126zm-8-9.8a10.014 10.014 0 0 1 6.702 4.87l5.781-1.878C28.196 4.335 23.538.815 18.001.125v6.076zM7.298 11.07A10.017 10.017 0 0 1 14 6.2V.124C8.463.815 3.805 4.334 1.518 9.191l5.78 1.878zm12.844 14.034C18.88 25.679 17.477 26 16 26s-2.88-.321-4.142-.896L8.286 30.02C10.574 31.281 13.203 32 16 32s5.426-.719 7.714-1.98l-3.572-4.916z"/></symbol><symbol id="icon-make-group" viewBox="0 0 32 32"><path d="M10 4H6c-1.1 0-2 .9-2 2v4c0 1.1.9 2 2 2h4c1.1 0 2-.9 2-2V6c0-1.1-.9-2-2-2zM22 12h4c1.1 0 2-.9 2-2V6c0-1.1-.9-2-2-2h-4c-1.1 0-2 .9-2 2v4c0 1.1.9 2 2 2zm0-6h4v4h-4V6zM10 20H6c-1.1 0-2 .9-2 2v4c0 1.1.9 2 2 2h4c1.1 0 2-.9 2-2v-4c0-1.1-.9-2-2-2zm0 6H6v-4h4v4zM26 20h-4c-1.1 0-2 .9-2 2v4c0 1.1.9 2 2 2h4c1.1 0 2-.9 2-2v-4c0-1.1-.9-2-2-2z"/><path d="M28 16h-2c-2.671 0-5.182-1.04-7.071-2.929S16 8.671 16 6V4c0-2.2-1.8-4-4-4H4C1.8 0 0 1.8 0 4v8c0 2.2 1.8 4 4 4h2c2.671 0 5.182 1.04 7.071 2.929S16 23.329 16 26v2c0 2.2 1.8 4 4 4h8c2.2 0 4-1.8 4-4v-8c0-2.2-1.8-4-4-4zm2 12c0 .53-.209 1.031-.589 1.411S28.53 30 28 30h-8c-.53 0-1.031-.209-1.411-.589S18 28.53 18 28v-2c0-6.627-5.373-12-12-12H4c-.53 0-1.031-.209-1.411-.589S2 12.53 2 12V4c0-.53.209-1.031.589-1.411S3.47 2 4 2h8c.53 0 1.031.209 1.411.589S14 3.47 14 4v2c0 6.627 5.373 12 12 12h2c.53 0 1.031.209 1.411.589S30 19.47 30 20v8z"/></symbol></defs></svg>