<svg xmlns="http://www.w3.org/2000/svg" viewBox="0 0 720 669.71"><path d="M-3.03-2.54h726.06v674.78H-3.03z" id="svg-back"/><g id="b"><path d="M577.96 234.89c14.19-11.39 31.1 4.84 24.73 20.32 13.01-3.97 20.77 10.54 14.55 18.13 24.15-.59 23.33 33.1 3.76 34.56 10.74 3.69 7.05 14.43.58 14.44 8.85 4.56 4.2 14.12 4.2 14.12s2.83-9.39-9.57-14.35c16.8-2.47 5.03-13.11.06-13.65 26.1-11.88 10.28-34.82-6.28-31.24 8.9-12.32-5.16-21.77-13.6-16.94 8.81-14.85-6.67-27.69-18.43-25.38ZM352.11 72.93c-1.36-6.85-11.19-7.84-15.15-.35-7.68-13.26-28.31-8.01-28.38 7.84-5.52-2.79-13.74-2-19.07 3.93-7.2-24.04-38.99-3.49-24.54 12.77-7.26-2.52-25.48 2.4-17.94 22.72-15.89-21.08-43.47-5.77-36.01 15.49-16.13-8-29.96.12-32.22 14.89-26.67-5.2-25.95 28.56-11.18 30.81-6.58.35-19.14 15.13-3.59 29.62-30.72-1.82-30.16 31.58-20.04 35.64-6.79-11.21 2.17-38.17 26.73-33.79-11.62-6.03-15.2-28.81.89-30.8-15.4-9.18-4.26-32.51 11.7-26.09-3.53-9.36 14.39-31.78 31.91-14.92-1.44-25.71 19.31-31.02 36.07-16.11-7.42-14.7 2.58-28.78 17.27-25.59-10.23-18.07 15.77-26.35 20.44-8.77 6.96-11.54 24.24-5.94 22.28 5.43 5.28-3.27 24.24-2.51 22.75 14.2 3.87-11.82-9.31-21.42-19.94-17.69.95-4.02-.2-7.32-2.5-9.62 1.38-12.05 16.73-21.19 25.23-3.15 1.67-6.78 11.65-11.86 16.65 1.15.09-3.79 5.6-12.76 20.07-15.45-12.12-.28-11.35-1.02-21.41 7.84Z" style="fill:#d3d3d3"/></g><g id="c"><path d="m538.2 223.37.68 16.46 13.32-18.77 2.55 5.99s7.49-10.89 9.76-11.6c.48-1 2.67 2.54 3.43.84 3.94-8.87 16.35-11.11 17.86-13.21v-.02c-2.34-1.08-14.06 2.64-22.04-2.71-1.56-1.05-1.67 3.05-2.58 2.42-2.33.5-14.21-5.3-14.21-5.3l.73 6.47-20.84-9.78 7.51 14.66-1.46.38-9.45-5.44-8.78-5.05 5.8 13.98.64 1.17 1.92 1.79-4.43 2.49.98 2.34.3 2.52h5.09l-.79 2.49.02 1.34 1.83 15.03 5.16-8.72 5.54-9.39 1.46-.38ZM531.97 287.65l-7.28 14.69 23.16-11.48-4.6 9.38s13.33-6.72 15.65-6.19c.92-.62.22 4.39 1.68 3.05 7.61-7.04 20.72-1.98 23.07-3.03-1.48-2.12-14.87-4.81-18.28-14.42-.66-1.86-2.53 2.77-3 1.76-2.26-.73-10.29-13.33-10.29-13.33l-.85 10.41-14.04-21.71-1.25 16.34-1.21-.33-5.01-9.33-5.03-10.2-2.37 16.34-.59 1.18 1.26 2.9-5.73-.75-.73 2.66-.73 2.66 5.31 2.28-2.56 1.85-.1 1.32-6.32 15.25 9.54-6.19 9.08-5.46 1.21.33ZM310.2 258.55l1.06-7.25-9.25 1.31 9.35-1.99 1.33-9.05-7.69 1.75-13.45 18.64 13.35-2.01-14.23 3.23-.08.11s-3.52 1.08-5.82 1.68c-.53.98-4.46 4.13-6.37 4.63-9.04 2.37-13.11 4.53-14.71 6.56v.02c2.29 1.19 6.88 1.51 16.1-.02 1.95-.32 6.83.96 7.71 1.63 2.35-.39 6-.84 6-.84l.16.09 14.48-2.88-13.13 3.67 19.78 11.48 7.73-1.54-5-7.88-9.39 2 9.02-2.59-3.82-6.02 2.96-.63 11.77 5.33 4.72-2.22-3.4-6.12-3.97-.48 1.85-1.17-.77-4.14-2.61-.51 2.17-1.53-.98-4.1-2.16-.31 3.43-2.06.61-6.98-5.21-.1-8.58 9.67-2.96.63Zm-21.89 10.81c3.7.34 3.97 1.03.64 2.99-3.34 1.96-10.69 3.28-11.22.77s6.89-4.1 10.59-3.76ZM318.53 200.13l-2.65-.81 4.29-5.9-9.02-3.44 9.44 2.87 5.31-7.3-9.84-.33-16.76 6.99 11.22 4.31-12.77-3.66-.09.04s-5.02.26-7.33-.33c-.93.6-5.07.61-6.93.39-8.87-1.05-14.68-1.84-17.06-.84 1.42 2.16 6.62 4.78 14.64 8.81 1.68.84 5.1 3.17 5.54 4.18 2.24.79 6.27 3.8 6.27 3.8l.02.02 12.91 4.15-11.94-2.69 10.02 15.13 8.36 5.21-.35-9.29-9.45-2.87 9.43 2.16-.27-7.01 2.65.81 7.3 10.23 5.14 1.77.39-8.33-2.69-2.17 1.7-.53 1.95-3.3-1.63-1.84 2.38-.63.21-3.83-1.12-1.39 3.44-.31 4.31-7.13-5.25-1.39-11.76 4.44Zm-27.48-2.12c3.08 2.09 2.98 2.82-.89 2.93-3.87.1-10.94-2.3-10.19-4.76s8.01-.25 11.08 1.83ZM350.11 154.36l-1.71-1.85 6.58-3.06-6.24-7.77 6.89 7.47 8.09-3.76-11.23-4.8-14.98-3.16s-.43-.15-1.08-.4l4.75 5.94-6.21-6.52c-1.92-.78-4.37-1.9-5.35-2.86-1.11.05-3.55-2.35-5.12-3.22-7.61-4.22-12.88-9.05-15.44-9.4.14 2.58 4.39 8.23 8.13 16.15.77 1.64 2.93 4.26 2.8 5.36.84.99 1.71 3.34 2.33 5.26l6.33 7.08-5.83-5.45c.22.77.36 1.28.36 1.28l1.95 15.19 3.89 11.57 4.57-8.07-6.89-7.47 7.25 6.83 3.4-6 1.71 1.85.82 12.2 2.76 5.32 5.56-7.93-.83-2.81 1.52-.18 3.54-.94-.05-2.32 2.31.24 1.22-3.45.3-1.51 2.73 1.05 8.35-4.91-5.09-3.18-12.09-1.8Zm-22.76-15.92c1.6 3.36 1.14 3.94-2.25 2.08-3.39-1.87-8.27-7.52-6.38-9.26 1.98-1.83 7.04 3.83 8.63 7.19ZM403.59 130.93l-.43-2.23 7.14.7-.82-6.75 1.3 6.8 9.07.89-9.71-11.14-6.76-8.47s-1.28-1.33-2.69-2.97l1.02 8.62-2.05-9.85c-1.21-1.5-2.29-3.04-2.52-3.99-.96-.55-.64-3.53-1.72-4.92-5.3-6.86-7.12-15.13-9.11-16.78v-.02h-.01v.02c-1.24 2.26-.06 10.52-2.26 18.96-.45 1.72.92 4.34.22 5.2.16 1.1-.43 3.33-1.11 5.39l1.66 9.44-2.15-7.98c-.61 1.73-1.16 3.07-1.16 3.07l-3.15 10.37-4.9 13.94 7.95-4.11-1.33-6.95 1.78 6.71 6.51-3.36.43 2.23-5.82 10.36-1.76 6.59 10.27-4.06.89-2.26 1.52.04 3.17 1.95 1.49-1.71 2.01 1.04 2.22-2.99 1.4-.6 1.66 1.77 11.04-.03-4.07-5.47-9.24-7.47Zm-11.79-28.72c-.6 2.73-1.3 2.96-3.01.58-1.7-2.38-2.48-7.74.04-8.22 2.64-.51 3.56 4.91 2.96 7.65ZM463.34 136.14l.5-1.95 6.23 3.52 2.23-6.75-1.79 7 7.84 4.43-6.01-16.4.48-6.8s-1.14-2.78-2.07-5.66l-2.81 8.45 2.37-9.9c-.53-1.82-.89-3.49-.72-4.32-.64-.9 1.79-2.68 1.16-4.32-3.18-8.24-.59-17.71-1.69-20.05v-.02h-.01c-2.09 1.53-4.54 10.85-11.1 16.79-1.32 1.19-.06 3.86-1.06 4.34-.27.89-1.59 2.37-3.1 3.84l-2.61 9.56 1.52-8.53c-2.08 1.93-4.14 3.6-4.14 3.6l-2.84 6.2-13.14 11.51 8.93-.12 1.82-7.12-1.3 7.11 7.21-.1-.5 1.95-9.57 6.47-5.82 5.22 12.36 1.04 1.62-1.11 1.74.18 1.37 3.77 2.22-.51 1.7 1.52 3.01-2.65 1.62.67.89 1.75 11.34 5.02-2.61-7.37-5.29-10.26Zm1.57-30.91c-1.59 1.79-2.32 1.68-2.96-.76-.64-2.44.7-6.71 3.2-6.08s1.36 5.04-.23 6.83ZM513.42 169.12l1.26-1.24 3.61 6.07 5.5-4.7-5.23 5.14 4.59 7.72 2.8-20.02 4.56-.82s1.31-11.45 2.93-13.19c-.08-1.11 3.25-.24 3.31-2.04.29-9.18 8.67-16.61 8.94-19.18v-.02c-2.57.23-10.19 8.09-19.33 8.61-1.81.1-.99 3.37-2.09 3.27-1.77 1.59-13.24 2.7-13.24 2.7l-.9 4.54-20.07 2.45 7.52 4.66 5.33-5.24-4.88 5.52 6.11 3.78-1.26 1.24-11.22.27-8.9.71 11.01 8.27 1.55.29 1.98.83-1.7 4.15 2.09 1.13 1.09 2.11 4.18-1.63.8 1.99.27 1.56 8.08 11.15.87-8.89.47-11.21Zm17.88-27.35c-1.39.43-1.74.14-1.3-1.33.43-1.47 2.48-3.27 3.57-2.16s-.88 3.05-2.27 3.48Z" style="fill:#d3d3d3"/></g><g id="d"><path d="m123.62 327.94.15 2.81c-4.8-.08-7.19 0-12.06.41-1.39-2.76-5.29-4.32-8.99-3.84-4.12.54-7.12 2.7-7.01 5.3.11 2.68 4.43 3.08 8.61 3.34 8.5.48 20.06 2.25 21.25 12.42 1.1 9.39-5.26 15.75-16.78 17.12-10.09 1.19-20.36-1.54-25.01-8.43-.14-1.07-.2-1.62-.33-2.74 5.26-.73 7.97-1.26 13.22-2.23 1.89 2.56 6.16 3.57 10.6 2.83 4.37-.73 7.56-2.28 7.17-4.95-.35-2.38-4.31-2.86-8.94-2.94-7.98 1-21.82-1.55-21.81-11.57 0-9.76 8.54-19.14 18.84-19.62 9.63-.45 17.48 5.16 21.08 12.1ZM144.91 317.92c5.35.01 7.98-.02 13.19-.08 6.2 13.44 12.01 26.95 17.47 40.72-.03 1.02-.04 1.53-.07 2.55-4.63.13-6.9.15-11.4.1-1.04-2.89-1.55-4.34-2.6-7.23-7.56-.05-11.36-.32-18.59-.13-.95 2.95-1.38 4.46-2.25 7.47-4 .23-5.94.41-9.92.79-.09-1.05-.14-1.57-.24-2.62 3.82-14.31 9.11-27.76 14.41-41.57Zm1.64 25.95c4.5.03 6.72.07 11.22.08-2.06-5.38-3.13-8.03-5.35-13.26h-.96c-1.91 5.25-2.89 7.9-4.91 13.18ZM194.17 330.72c-.29 0-.44 0-.73.01.28 9.82.15 19.71-.21 29.53-4.56.26-6.89.42-11.43.62.37-14.5.37-28.93.03-43.43 6.4-.08 9.61-.08 15.96-.02 6.22 9.27 12.26 18.5 18.05 28.04.28 0 .42 0 .7.02.14-11.43-.06-16.72-.29-27.73 4.42.09 6.63.16 11.05.18.31 13.91.02 27.78-.38 41.68-6.05-.09-9-.16-15.15-.06a484.07 484.07 0 0 0-17.6-28.82ZM233.81 317.92c13.19-.32 26.35-.73 39.54-.29.05 3.74.08 5.59.13 9.3-5.71-.09-8.56-.11-14.26-.04.11 10.91.02 21.74-.27 32.65-4.45.05-6.82.1-11.34.14.33-10.87.55-21.69.58-32.56-5.73.16-8.6.21-14.3.19-.02-3.74-.05-5.61-.09-9.41ZM288.58 318.25c5.52.23 8.5.47 14.17.82 5.23 13.27 10.16 26.59 14.83 40.07-.15.89-.23 1.33-.38 2.22-5.34-.35-7.95-.55-12.84-.87-.75-2.69-1.1-4.05-1.83-6.78-8.1-.65-11.73-.91-18.72-1.11-1.28 2.75-1.9 4.17-3.11 6.98-3.94-.04-5.92-.07-10.07-.08l.15-2.45c5.84-12.96 11.31-26.14 17.81-38.8Zm-.19 24.97c4.43.27 6.71.46 11.46.88-1.55-5.23-2.42-7.88-4.33-13.11-.41-.03-.61-.05-1.01-.08-2.42 4.9-3.64 7.33-6.11 12.31ZM95.93 281.79c0 .5 0 .75-.01 1.25 5.92 7.44 11.69 15 17.4 22.61-.03 1.03-.05 1.54-.08 2.57-5.15.05-7.71.08-12.83.14-5.21-7.08-7.82-10.62-13.27-17.61l-5.82 5.87v12.02c-4.59.07-6.89.11-11.54.17-.35-14.67-.64-29.33-.73-44 5.02-.28 7.47-.41 12.3-.64-.03 7.26-.03 10.94-.02 18.3 7.4-7.63 11.14-11.5 18.37-19.02 4.84-.14 7.24-.18 12.04-.23 0 1.01 0 1.52.01 2.53-6.23 6.31-9.43 9.56-15.82 16.04ZM132.72 295.97c-5.78-10.15-11.63-20.27-17.7-30.25 0-1.01 0-1.52-.02-2.53 4.79-.03 7.17 0 12.01.07 4.59 8.26 6.92 12.48 11.36 20.85h.82c4.71-8.31 6.99-12.33 11.68-20.55 4.67.04 6.94.09 11.68.08v2.51c-6.07 9.94-12.18 19.86-18.3 29.78-.16 4.78-.25 7.18-.41 12-4.58.03-6.87.06-11.49.11.16-4.82.25-7.23.37-12.06ZM168.67 263.63c4.74 0 7.12-.02 11.89-.02-.02 15.08-.56 29.9-1.95 44.92-4.59-.24-6.87-.32-11.43-.44.85-14.85 1.44-29.59 1.5-44.46ZM187.45 266.12c0-1 0-1.5-.01-2.51 4.94.01 7.42.03 12.35.1 4.26 10.62 8.16 21.13 11.78 31.98.33.02.49.04.82.06 4.58-10.32 8.95-20.66 13.2-31.12 4.66.3 6.97.48 11.51.95-.03 1.08-.05 1.62-.09 2.71-6.15 14.22-12.49 28.25-19.41 42.11-5.43-.61-8.22-.81-13.84-1.11-4.64-14.8-10.12-28.95-16.3-43.17Z" style="fill:#d3d3d3"/></g><g id="e"><path d="M119.08 415.49c-.39-2.38 2.8-3.49 2.8-3.49l-.49-1.76s-.41.05-2.37-.28c-2.72-.46-1.97-3.1-1.97-3.1s-1.6 1.15-1.04 2.54 3.06 6.09 3.06 6.09ZM121.38 410.22v.03-.03Z" style="fill:#d3d3d3"/><path d="M121.94 406.38c-1.79-1.23-1.41-2.89-1.46-6.05-1.63-1.02-3.42.12-3.26 1.5s.54 5.63.54 5.63 1.3-1.75 4.19-1.09Z" style="fill:#d3d3d3"/><path d="M123.28 406.12s3.46-.31 9.24-1.36c-2.39-.06-4.49-5.92.55-6.69-1.83.16-7.04.23-10.2 1.15-3.16.91-1.61 7.06.42 6.91ZM124.41 412.95s3.27-.4 8.53-.96c-1.12-.23-2.68-5.14.27-6.63-1.08-.12-5.23.77-9.44 1.36-2.78 1.61-2.54 6.65.63 6.23ZM133.19 411.97l-.24.03c.08.02.17.01.24-.03ZM124.28 413.74c-1.13.76-2.4 4.68.31 4.64 0 0 3.14-.22 8.79-.49-1.51-1.12-.12-5.13-.12-5.13s-5.65.26-8.97.98ZM123.98 397.95l9.78-.46s-1.18-.72-1.54-3.29 1.97-3.31 1.97-3.31-5.08.47-9.89 1.05c-3.38 2.78-.33 6.01-.33 6.01Z" style="fill:#d3d3d3"/><path d="M123.22 397.73s-1.09-1.8-1.24-2.69c-.15-.89 1.69-3.41 2.27-3.89.58-.48 2.19.05 2.19.05l-2.29-1.83-6.43 8.33 2.24 1.53 3.26-1.5ZM130.63 390.11c3.02-.13 4.22-.1 4.22-.1s2.17.74 1.95 4.98c2.11-.05 2.91-.03 2.91-.03s1.71-5.29.52-7.68c-6.86-.26-10.28-.14-10.28-.14s1.38.72.69 2.98ZM135.85 396.45c-.15 1.48-2.23 10.11-2.23 10.11.22-.69 4.67-.98 4.75 1.49 0 0 2.02-5.38 4.18-10.36-1.22-2.2-6.54-2.72-6.69-1.24ZM142.13 396c1.66-1.54 4.26-2.66 5.15.32 0 0-.19-2.37-.8-6.43-2.42-2.23-5.32.67-5.32.67l-.69 4.62 1.66.83Z" style="fill:#d3d3d3"/><path d="m141.41 402.49-2.52 5.96-2.13.74-.45 2.06c4.05 3.25 6.67 1.93 6.67 1.93s3.72-9.84 2.73-10.69c.61 1.69-4.3 0-4.3 0ZM146.18 402.11c.47-.38 3.67-1 3.62 2.25-.1 1.77.89-4.62 1.68-8.64-.14-2.07-3.24-1.55-3.24-1.55l-.21 3.55-2.51 2.41.66 1.99ZM185.25 425.92l1.76-10.38 9.34-2.68-8.72-15.5-20.01 13.14 6.07 12.2 1.61-.61 9.95 3.83zM155.3 434.51c.23-1.7 3.29-2.77 3.29-2.77l2.56-4.3.26-.1-4.39-9.89-22.91 15.04 2.32 4.43 18.59.99s.04-1.7.27-3.41ZM95.94 427.82l8.24 20.66 11.01 2.38-8.73-21.54-10.52-1.5zM133.32 436.76l-1.87-3.57-13.56-1.94 7.72 21.08 4.05-15.77 3.66.2zM151.03 406.36s-.15.4-.74.8c6.56.82 13.6 1.86 16.25 2.26l19.78-12.67-23.02-1.21-11.88 8.46-.39 2.35ZM121.68 417.36v-.03c-1.92 1-3.13-.07-3.59-.46-.32-.27-1.35-2.2-1.98-3.39l-19.74 12.26 11.14 1.86 14.17-10.24ZM155.03 416.23l-11.48-1.56-.02.05s-2.57.51-4.07 0c-1.5-.51-2.06-.9-2.06-.9s.61 2.48-1.23 4.05-3.07 1.73-3.07 1.73l-2.41.12-12.24 9.42 13.04 2.17 23.54-15.07ZM166.53 410.99l-8.79 5.68 4.58 10.33 10.25-3.88-6.04-12.13zM164.88 410.03c-2.51-.38-9.17-1.36-15.39-2.14-.59.4-.63.33-2.52.28-1.5 4.17-1.51 5.48-1.62 5.79l10.87 1.48 8.66-5.42ZM108.02 429.76l8.73 21.54 8.04 1.83-8.13-22.19-8.64-1.18zM109.02 427.81l8.18 1.33 12.09-9.19-5.69.28s-1.67.47-1.34-1.96l-13.24 9.55ZM161.52 395.36l-9.16-.57-1.25 8.16 10.41-7.59z" style="fill:#d3d3d3"/></g><g id="f"><path d="M247.59 414.54c-1.49.65-1.76.7-1.8.68l-.04 1.47s2.71.24 2.87 2.18c0 0 1.03-4.16 1.2-5.36s-1.31-1.78-1.31-1.78 1.11 1.92-.93 2.81Z" style="fill:#d3d3d3"/><path d="M245.8 415.22v-.02s-.01.02 0 .02ZM244.57 407.29c.57 2.48 1.2 3.71.04 5.02 2.13-1.08 3.49.03 3.49.03s-.54-3.4-.69-4.51-1.77-1.66-2.84-.54Z" style="fill:#d3d3d3"/><path d="M242.48 406.88c-2.65-.1-6.74.87-8.2 1.1 4.09-.38 3.6 4.62 1.74 5.13 4.73-.31 7.49-.74 7.49-.74 1.61-.28 1.62-5.39-1.03-5.49ZM243.24 412.94c-3.4.36-6.83.48-7.65.79 2.6.59 2.34 4.74 1.52 5.13 4.22-.6 6.86-.93 6.86-.93 2.56-.29 1.76-4.28-.73-5ZM237.1 418.86l-.2.03c.07.02.13 0 .2-.03ZM244.89 422.21c2.12-.5.36-3.32-.67-3.69-2.74.09-7.21 1-7.21 1s1.87 2.87.91 4.04c4.47-.9 6.97-1.34 6.97-1.34ZM239.92 401.48c-3.87.49-7.94 1.11-7.94 1.11s1.96.12 2.19 2.2-.56 2.87-.56 2.87l7.74-1.56s1.75-3.12-1.44-4.64Z" style="fill:#d3d3d3"/><path d="M239.82 400.85c.55.26 2.48 1.87 2.54 2.6.06.73-.44 2.35-.44 2.35l2.84.54 1.45-1.64-6.66-5.26-1.43 1.88s1.16-.73 1.7-.47ZM230.76 406.31c-1.01-3.27.55-4.27.55-4.27s.93-.26 3.32-.75c-.98-1.63-.04-2.46-.04-2.46s-2.7.58-8.01 2.12c-.46 2.11 1.91 5.91 1.91 5.91s.62-.17 2.28-.55ZM226.8 409.55c2.66 3.47 5.3 7.28 5.3 7.28-.42-1.95 3.12-2.59 3.42-2.1 0 0-3.32-6.34-3.73-7.47-.41-1.12-4.46.32-4.99 2.28ZM226.79 408.15l1.14-.97-1.45-3.48s-2.83-1.69-4.29.52c.32 3.29.64 5.19.64 5.19.11-2.5 2.36-2.13 3.96-1.26Z" style="fill:#d3d3d3"/><path d="M225.25 413.93c-.61.85 4.23 7.82 4.23 7.82s2.31.52 4.84-2.82l-.76-1.52-1.81-.16-3.14-4.17s-3.51 2.29-3.36.84ZM222.43 416.2c-.68-2.53 1.95-2.68 2.39-2.47l.13-1.68-2.44-1.39-.86-2.73s-2.52.2-2.23 1.85c1.41 2.99 3.44 7.79 3.01 6.43ZM193.4 434.07s3.4.65 4.11 2.37-1.83 5.26-1.83 5.26 2.07.62 2.21 2.7c1.41.99 2.84 2.49 5.77 4.68l5.02-24.91-17.21-6.05-2.14 9.62 4.88 4.06-.81 2.26ZM240.21 435.12l-20.14-6.69-4.89 28.92c2.92 2.23 5.76 4.4 8.15 6.23l12.22 3.28 4.65-31.74ZM261.07 427.52l-4.08 27.55 7.76-3.84 3.89-26.8-7.57 3.09zM242.37 435.07l-4.44 30.54 10.86-5.87 3.63-28.78-10.05 4.11zM222.01 418.36c-.53-.19-.71-.47-.71-.47l-.74-1.7-10.59-4.15-17.18 5.28 17.37 5.83c1.93-.8 7.06-2.93 11.87-4.79ZM247.4 421.11v.02l12.44 4.97 7.93-3.45-16.95-5.43c-.24 1-.65 2.63-.84 2.88-.27.38-.97 1.4-2.58 1.01ZM251.8 429.56l-11.04-4.81-1.84.37s-.96.11-2.65-.72c-1.69-.84-1.7-2.83-1.7-2.83s-.35.4-1.39 1.07-3.08.77-3.08.77l-.02-.03-8.38 3.36 20.66 6.93 9.45-4.12ZM218.18 428.01l-7.99-2.71-4.84 24.83c2.53 1.9 5.37 4.06 8.19 6.2l4.64-28.32ZM223.7 418.8c-4.82 1.87-9.96 4-11.89 4.81l8.02 2.6 8.41-3.37c-.15-.23-.42-1.28-2.46-4.32-1.5.41-1.52.48-2.08.28ZM253.47 430.4l-3.59 28.49 5.78-2.93 4.17-28.1-6.36 2.54zM258.72 426.61l-11.42-4.55c.68 1.72-.62 1.68-.62 1.68l-4.21.84 10.52 4.5 5.73-2.47ZM217.87 409.41l-6.37 2.02 8.69 3.51-2.32-5.53z" style="fill:#d3d3d3"/></g><g id="g"><path d="M156.44 444.89s.68-5.27 1.03-6.74 2.31-1.47 2.31-1.47-2.15 1.72-.19 3.67 1.78 1.57 1.78 1.57l-.63 1.74s-3.25-.94-4.3 1.22Z" style="fill:#d3d3d3"/><path d="M160 437.58s2.15-3.68 2.82-4.91 2.79-1.12 3.53.66c-1.78 2.61-3.06 3.75-2.31 5.78-1.98-2.21-4.05-1.54-4.05-1.54Z" style="fill:#d3d3d3"/><path d="M165.3 439.68c-1.74-1.05.56-6.96 3.66-5.88s7.4 4.04 8.98 4.97c-4.55-2.28-6.24 3.72-4.32 5.14-5.32-2.49-8.33-4.23-8.33-4.23ZM162.27 445.91c-2.83-1.49-.11-5.74 3.09-5.45 3.77 1.95 7.68 3.62 8.49 4.35-3.52-.53-5.07 5.2-3.85 5.37-4.73-2.66-7.72-4.27-7.72-4.27ZM159.27 450.43c-2.23-1.54 1.07-4 2.44-3.96 3.12 1.34 7.88 4.39 7.88 4.39s-3.45 2.47-2.87 4.26c-4.76-3.05-7.45-4.69-7.45-4.69ZM170.59 433.42s-.62-4.4 3.75-4.71c4.25 2.31 8.67 4.86 8.67 4.86s-2.32-.75-3.52 1.56-.65 3.57-.65 3.57l-8.25-5.28Z" style="fill:#d3d3d3"/><path d="m166.57 432.14-.94-2.54 10.07-3.08.81 2.82s-1.01-1.36-1.76-1.31-3.71 1.05-4.1 1.86-.55 2.91-.55 2.91l-3.53-.66ZM181.71 428.05s.71 1.39-1.16 2.83c2.54 1.65 3.5 2.36 3.5 2.36s1.35 1.86-1.29 5.19c1.75 1.18 2.39 1.66 2.39 1.66s4.45-3.33 4.86-5.97c-5.45-4.18-8.31-6.06-8.31-6.06ZM173.47 446.01s6.69-5.84 7.67-6.95 5.01 2.38 4.74 4.88c-4.64 2.82-9.4 6.03-9.4 6.03 1.36-2.06-2.44-4.4-3.01-3.96ZM186.52 442.33l-.87-1.63 3.24-3.37s4.04-.68 4.72 2.53c-1.85 3.66-3.07 5.71-3.07 5.71 1-2.95-1.77-3.53-4.02-3.24Z" style="fill:#d3d3d3"/><path d="m172.95 451.4 1.56-1.42 2.16.63 5.5-3.4s3.03 4.22 3.51 2.49c.32 1.26-8.41 7.14-8.41 7.14s-2.91-.44-4.33-5.43ZM186.29 449.66l.61-2 3.44-.51 2.22-2.77s2.82 1.36 1.74 3.14c-2.97 2.83-7.48 7.46-6.37 6.08 1.93-2.62-1.04-3.97-1.65-3.93ZM212.68 525.68l10.17-55.93-23.92-.85-11.27 57.73 25.02-.95zM130.46 441.74l-12.13 51.4 7.6 8.31 12.23-52.4-7.7-7.31zM143.53 521.72l12.95-55.04-9.94-9.43-13.09 52.59 10.08 11.88zM222.82 468.36l-17.62-13.95-14.22.03-1.64 1.65s-.34.24-1.04.22c4.75 4.36 9.76 9.15 11.65 10.96l22.87 1.08ZM157.66 447.99c-2.14-.3-2.51-1.87-2.66-2.45-.11-.4.17-2.58.35-3.9l-23.2-1.42 8.01 7.96 17.48-.16s0-.01.02-.02ZM176.87 459.11s-2.34-1.05-3.25-2.3c-.91-1.26-1.14-1.88-1.14-1.88s-.92 2.32-3.27 2.53-3.42-.36-3.42-.36l-1.98-1.27-15.07.59 9.16 9.1 27.27 1.29-8.26-7.73-.04.03ZM197.75 468.68l-10.45-.47-12.53 57.67 11.72.53 11.26-57.73zM185.2 455.44c-.76-.02-.75-.1-2.35-1.29-3.83 2.67-4.65 3.8-4.93 4l8.46 7.92 10.77.62c-1.93-1.86-7.07-6.78-11.95-11.25ZM126.94 502.53l5.5 6.14 13.1-52.58-6.37-5.96-12.23 52.4zM157.66 451.32s-1.63-.58.04-2.37l-16.32.13 5.91 5.82 15.18-.5-4.8-3.07ZM195.56 447.26l-5.74 5.93 12.89-.17-7.15-5.76zM163.69 490h.01-.01zM158.87 467.46l-13.09 55.87 26.71 2.93 13.1-57.88-26.72-.92Zm3.17 11.14 6.33.49-.36 1.45-6.34-.45.37-1.49Zm4.23-4.15c1.98.14 2.84 1.62 2.39 3.44l-.17.71-1.42-.12.16-.67c.23-.96-.22-1.7-1.33-1.78-1.11-.08-1.89.58-2.12 1.54l-.15.61-1.46-.13.15-.6c.45-1.81 1.97-3.13 3.95-2.99Zm-5.4 8.89 6.57-1.97.36.03-.39 1.59-.59.16-.28.08-.26.07-1.56.46-2.13.58-.04.14 1.78.86.32-1.29 1.56-.45-.58 2.37.94.46-.38 1.54-.36-.03-5.41-2.78.45-1.82Zm9.9 25.82-1.52-.21c.16-.9-.32-1.55-1.36-1.64-.98-.09-1.75.37-2.1 1.17l-1.53-.21c.62-1.63 2.16-2.69 4.04-2.52 1.98.19 2.9 1.62 2.47 3.41Zm-3.62 5.62c-.32-.04-.57.17-.66.51l-.36 1.32-1.44-.16.32-1.19c.09-.34-.03-.58-.34-.61-.3-.03-.54.18-.63.52l-.32 1.17-1.45-.17.31-1.14h.01c.32-1.2 1.24-2.03 2.33-1.93.53.05.89.33 1.1.75h.1c.44-.41 1-.66 1.57-.61 1.12.1 1.58 1.08 1.25 2.28l-.37 1.37-1.42-.16.36-1.33c.09-.34-.04-.58-.37-.61Zm-.59-2.59c-1.93-.18-2.83-1.53-2.49-3.26l1.54.21c-.09.82.4 1.41 1.38 1.49.93.08 1.65-.32 2.03-1.02l1.53.21c-.66 1.55-2.17 2.53-3.99 2.36Zm-1.86-18.09-6.34-.45.38-1.57 6.28.69-.33 1.33Zm-5.54-3.74c.3-1.21 1.19-2.06 2.28-1.98.53.04.9.31 1.12.72h.1c.43-.42.98-.68 1.56-.64 1.12.08 1.6 1.04 1.31 2.25l-.36 1.46-1.43-.16.34-1.41c.08-.34-.06-.58-.39-.6-.32-.02-.55.19-.64.53l-.33 1.36-1.43-.16.29-1.2c.08-.34-.05-.58-.36-.6-.3-.02-.53.19-.62.53l-.28 1.16-1.43-.16.26-1.08Zm-2.99 10.49c.32-1.2 1.32-2.02 2.54-1.9.89.08 1.42.62 1.51 1.36h.06l2.49-1.22.36.03-.45 1.68-2.57 1.19-.2.76-1.52-.16.4-1.5c.09-.34-.04-.58-.38-.61-.33-.03-.59.17-.68.51l-.48 1.79 1.06.1 2.45.25 1.26.11-.41 1.52-6.33-.59.89-3.32Zm1.93 4.77c1.95.18 2.86 1.56 2.5 3.31l-1.53-.19c.12-.86-.37-1.47-1.38-1.56-.96-.09-1.72.36-2.08 1.13l-1.54-.19c.62-1.62 2.16-2.68 4.03-2.5Zm.03 12.06-6.33-.58 1.21-4.48 1.44.13-.8 2.96 1.07.1.77-2.84 1.44.13-.77 2.84 2.38.22-.41 1.52Zm-1.77-5.62c-1.98-.19-2.88-1.6-2.47-3.39l1.54.18c-.17.91.3 1.57 1.35 1.66 1.03.09 1.81-.41 2.15-1.27l1.52.17c-.58 1.71-2.17 2.82-4.09 2.64Zm5.35 6.22.4-1.5 6.3.69-.38 1.4-6.33-.59Zm10.55-15.03-1.69-.15-4.91 1.97-.36-.03.42-1.58 3.37-1.23.03-.11-2.56-1.78.41-1.53.36.03 3.65 2.73 1.7.16-.41 1.52Zm-.44-4.45h-.02l-.41-.03.42-1.58c.44-.14.81-.59.96-1.15.15-.55.12-1.01-.24-1.04-.32-.03-.59.46-.86 1.01-.49 1.02-1.25 2.52-2.69 2.38-1.21-.11-1.77-1.32-1.41-2.65a3.61 3.61 0 0 1 2.46-2.52l.41.04-.42 1.58c-.42.12-.8.59-.93 1.06-.14.53-.05.93.27.96.33.03.63-.48.89-.99.52-1.04 1.27-2.54 2.67-2.41 1.29.12 1.76 1.31 1.38 2.75-.34 1.26-1.25 2.25-2.48 2.59Z" style="fill:#d3d3d3"/></g><g id="h"><path d="M391.87 492.08s7.57 43.64 17.51 50.95c16.15.88 17.77-3.63 17.77-3.63s-22.89-15.19-35.28-69.05c-3.09 2.45 0 21.73 0 21.73ZM402.81 369.77s-11.39 11.61-16.52 15.03c5.42 5.94 6.64 7.74 9.4 8.56 5.53-9.47 7.12-23.59 7.12-23.59ZM382.05 479.97s2.01 44.02 16.05 59.51c-21.94-2.03-26.57 1.65-26.57 1.65s-6.1-31.22-2.5-55.4c9.27-7.36 13.02-5.76 13.02-5.76ZM302.46 494.23c6.04 1.03 6.58-.23 3.68-.67-2.9-.45-6.39-2.17-5.23-3.28s11.36.64 17.66 1.42c6.3.78 7.48-.96 4.45-1.16-3.03-.2-17.37-3.06-18.49-3.72s1.49-1.76 5.13-3.32c2.58-1.11 4.56-2.64 4.64-4.63-1.26-.67-2.37-1.34-3.23-2-5.46-4.17-7.75-14.33-9.48-27.01s4.24-30.23 4.24-30.23c-11.95 13.87-22.32 46.99-22.46 53.05-.13 5.45-2.43 16.99 7.36 21.33 4.12-1.86 6.69-.64 11.72.22Z" style="fill:#d3d3d3"/><path d="M342.99 485.88c-9.55.19-21.05-3.07-27.89-6.55-.53 2.47-3.61 3.99-4.41 4.42-.9.48-5.84 2.45-5.03 2.86 1.36.69 13.1 3.2 17.16 3.53 5.34.44 2.98 3.04-4.7 1.98s-12.7-1.62-14.98-1.68c-3.03-.07-1.56 1.94 2.73 2.81 6.89 1.39.66 2.34-2.69 1.64-2.34-.49-3.25-.69-7.17-1.26-1.55-.22-2.88.47-3.97.97.83.3 1.72.56 2.71.76 14.08 2.86 32.77 3.29 39.88 1.94 7.11-1.35 24.41-6.51 38.93-22.34-10.83 9.35-18.95 10.68-30.58 10.91ZM550.15 373.78c-1.64-1.68-3.06-3.14-3.28-4.34-.24-1.36-1.96-3.08-3.58-4.35-1.12-.88-2.13-1.3-2.75-2.16-.51-.72-.74-1.43-.97-2.11-.46-1.41-1.01-3.18-3.9-4.87-3.4-1.99-3.67-4.38-3.96-6.43-.11-.81-.5-2.38-.75-2.9-.74-1.57-4.54-4.87-10.46-8.46-61.38 14.01-85.35 53.35-85.35 53.35s-13.52 16.36-11.19 46.24c2.34 29.87 28.32 64.34 28.32 64.34s1.81-12.59 14.11-41.62c12.3-29.03 37.37-63.82 55.33-75.53 10.5-6.85 21.21-10.25 31.24-6.6-.09-1.64-1.31-3-2.82-4.54Z" style="fill:#d3d3d3"/><path d="M533.49 335.67c-4 .62-7.86 1.35-11.59 2.17 5.46 3.46 9.41 7.4 10.25 9.2.31.66.42 1.47.54 2.32.29 2.06.62 4.4 3.6 6.15 3.22 1.89 3.75 3.53 4.22 4.99.21.64.4 1.25.83 1.84.53.75 1.53 1.53 2.59 2.36 1.77 1.39 3.6 2.83 3.91 4.56.16.9 1.54 2.32 3.01 3.82 1.83 1.87 3.84 3.94 4.55 6.01 7.64 2.89 15.62 8.97 24.12 19.31-9.11-42.67-46.05-62.73-46.05-62.73ZM510.76 334.22c7.7-2.07 15.51-3.71 23.4-5.1-15.26-17.54-35.89-21.56-35.89-21.56-3.7 1.28-7.22 2.67-10.58 4.13 5.68 2.83 18.94 11.74 23.07 22.52Z" style="fill:#d3d3d3"/><path d="M487.04 311.96c-34.67 15.21-51.43 38.11-51.43 38.11s3.24 12.71.82 29.84c21.64-25.6 46.88-38.2 73.59-45.49-1.44-3.42-6.73-13.14-22.98-22.45ZM563.99 469.05c-.64-5.07-.07-7.84 1.07-13.37 1.14-5.53-5.96-4.69-7.41-7.5-1.45-2.81 6.36-12.49 6.19-16.03-.17-3.54-3.22-2.85-5.79-.89s-3.52-.84-1.87-6.61c1.65-5.77 3.64-15.33 3.54-21.9-.08-5.16-1.59-9.24-3.54-12.14-12.77-5.21-26.57.63-48.22 21.29-26.36 25.16-43.61 76.89-42.25 99.59.36 6.07 1.39 5.59 4.26 12.23 19.57-3.67 58.24-16.06 90.12-30.98 1.53-6.54 4.42-19.54 3.9-23.68Z" style="fill:#d3d3d3"/><path d="M564.44 395.53c-1.75-1.36-3.49-2.52-5.25-3.48 4.64 9.01.73 25.62-1.45 30.62-2.4 5.5-.18 7.83 1.1 6.85 1.29-.98 3.36-3.21 5.3.12s-1.19 7.81-2.51 10.3c-1.32 2.5-4.46 7.22-.71 8.83s6.2 5.2 5.64 7.21c-.55 2.01-1.69 7.54-1.06 12.86.47 3.94-2.18 16.7-3.58 23.03 10.4-4.94 20.02-10.15 27.92-15.39 8.86-33.15-10.02-68.97-25.4-80.95Z" style="fill:#d3d3d3"/></g><g id="i"><path d="M474.91 247.13s7.52 2.7 8.77 3.24c1.64 5.35 2.27 11.17 7.01 13.81s8.24 1.39 10.69-.41c1.57-1.16 2.54-3.16 2.54-3.16s.26 9.11-10.72 26.38c-8.39 13.2-20.06 20.14-33.04 21.78-12.67 1.6-11.77-15.44-2.84-24.33 4.33-4.31 14.25-17.86 17.61-37.31ZM386.76 277.67s2.31 20.27-8.17 35.95c5.25 13.26 17.27 28.96 18.76 30s14.43-1.18 19.57-4.85 7-7.67 7-7.67l-11.44-18.71 8.16-13.96s-9.12-10.07-16.84-14.54c-7.73-4.48-16.47-8.72-17.04-6.21Z" style="fill:#d3d3d3"/><path d="M377.7 292.62s-5.52 14.53-1.89 21.44c.28 3.06 9.37 20.69 18.98 31.52-6.31-.15-15.51-6.93-15.51-6.93s-9.7-17.41-10.83-23.25c-1.13-5.84 5.02-20.35 5.02-20.35l4.23-2.43ZM419.34 289.55l14.11 1.59s7.04 12.29 8.73 15.87 1.9 15.96.82 18.97-12.37 10.33-12.37 10.33-12.19-19.24-13.88-22.31c1.67-6.78 7.95-15.99 7.95-15.99l-7.42-7 2.06-1.47ZM422.04 455.51c-11.75-40.13 5.74-59.19 8.22-76.38 2.49-17.19-1.85-34.54-5.08-42.38-3.15 5.04-8.33 7.58-13.11 9.36-4.78 1.78-10.45 1.08-10.45 1.08s.62.98 1.38 2.88c2.55 1.06 9.37 3.44 15.95 1.5-2.3 1.08-3.96 1.74-3.96 1.74s-5.77 1.28-11.11-.78c.43 1.35.85 2.94 1.2 4.77 2.96 1.13 9.4 3.03 15.62 1.09-2.32 1.17-4.06 1.87-4.06 1.87s-5.66 1.3-11.19-.7c.2 1.43.35 2.98.43 4.64 3.15 1.13 9.43 2.78 15.52.79-2.34 1.26-4.17 2-4.17 2s-5.57 1.32-11.3-.64c.01 1.51-.04 3.11-.17 4.79 3.32 1.11 9.44 2.52 15.39.48-2.36 1.34-4.27 2.13-4.27 2.13s-5.42 1.33-11.31-.54a65.89 65.89 0 0 1-.78 5.15c3.45 1.08 9.43 2.28 15.26.18-2.38 1.43-4.38 2.26-4.38 2.26s-5.26 1.34-11.29-.44c-.12.52-.23 1.04-.36 1.58-.27 1.12-.73 2.49-1.3 4.08 3.51 1.07 9.56 2.22 15.47 0-2.4 1.52-4.49 2.39-4.49 2.39s-5.34 1.41-11.69-.46c-.71 1.9-1.53 4.05-2.39 6.44 3.51 1.08 9.86 2.33 16.03-.07-2.42 1.6-4.59 2.51-4.59 2.51s-5.43 1.5-12.14-.48c-.02.07-.05.14-.07.2 1.27 2.59 1.84 5.48 1.44 8.3 3.5.55 7.92.59 12.26-1.16-2.44 1.69-4.7 2.64-4.7 2.64s-3.25.92-7.98.4c-.6 1.91-1.68 3.74-3.38 5.35.38.6.72 1.22 1.03 1.84 3.53.5 7.95.48 12.29-1.34-2.46 1.77-4.8 2.77-4.8 2.77s-2.59.76-6.61.55c.82 2.19 1.17 4.4 1.03 6.52 2.79.01 5.87-.43 8.92-1.74-2.48 1.86-4.91 2.9-4.91 2.9s-1.59.48-4.26.6c-.49 2.29-1.63 4.41-3.49 6.21 3.55.39 7.89.2 12.18-1.7-2.5 1.95-5.01 3.03-5.01 3.03s-3.28 1.04-8.54.5c.83 2.16 1.33 4.23 1.54 6.17 3.61.37 8.03.15 12.4-1.84-2.52 2.03-5.12 3.16-5.12 3.16s-2.66.87-7.16.65c.03 2.13-.29 4.05-.87 5.67 3.91.6 9.13.62 14.27-1.78-2.54 2.12-5.23 3.29-5.23 3.29s-3.68 1.25-9.95.44c-.33.56-.7 1.07-1.1 1.51.21 1.22.44 2.45.71 3.7 3.99.98 10.71 1.77 17.3-1.39-2.57 2.21-5.33 3.42-5.33 3.42s-4.13 1.46-11.42.3c.41 1.67.86 3.35 1.38 5.06.02.07.04.13.06.19 4.04.97 10.86 1.72 17.54-1.56-2.59 2.29-5.44 3.55-5.44 3.55s-3.99 1.47-11.36.39c.55 1.74 1.09 3.43 1.62 5.08 4.1.95 11 1.66 17.77-1.73-2.61 2.38-5.54 3.68-5.54 3.68s-3.9 1.49-11.43.45c.56 1.68 1.12 3.31 1.68 4.9 4.15.96 11.2 1.68 18.13-1.87-2.63 2.47-5.65 3.81-5.65 3.81s-3.84 1.52-11.62.5c.7 1.95 1.4 3.84 2.1 5.67 4.18.97 11.43 1.72 18.55-2.01-2.65 2.55-5.75 3.94-5.75 3.94s-3.8 1.56-11.83.55c.96 2.42 1.92 4.75 2.89 6.99 4.18.99 11.7 1.83 19.09-2.11-2.67 2.64-5.86 4.06-5.86 4.06s-3.76 1.6-12.1.59c1.11 2.46 2.23 4.83 3.38 7.13 4.22.99 11.88 1.83 19.41-2.26-2.69 2.72-5.97 4.19-5.97 4.19s-3.65 1.62-12.12.67c1.19 2.29 2.4 4.54 3.66 6.75 4.35.94 11.88 1.58 19.29-2.51-2.71 2.81-6.07 4.32-6.07 4.32s-3.42 1.59-11.73.79c1.13 1.93 2.29 3.86 3.5 5.8 4.49.84 11.7 1.17 18.81-2.83-2.73 2.9-6.18 4.45-6.18 4.45s-3.14 1.5-11.05.91c.89 1.4 1.8 2.82 2.73 4.25 4.57.71 11.45.74 18.24-3.13-2.75 2.98-6.28 4.58-6.28 4.58s-2.85 1.43-10.33 1.02c.82 1.24 1.66 2.49 2.51 3.76 4.66.53 11.25.25 17.76-3.58-2.79 3.16-6.49 4.84-6.49 4.84s-2.51 1.36-9.63 1.16c.8 1.18 1.61 2.37 2.44 3.6 15.87 2.27 26.04-11.52 26.04-11.52s-28.66-38.95-38.49-72.54ZM412.43 166.96c-10.21 4.44-13.6 13.35-16.2 18.69-1.93 3.97-5.07 6.07-9.51 6.85-4.01.71-6.21.87-9.91 2.17-3.85 1.36-6.62 2.25-5-2.52 1.38-4.04 3.93-11.32 12.63-18.03-49.41 21.23-41.03 76.37-41.03 76.37s6.36-12.61 44.43-19.81c38.07-7.2 60.65-.1 96.2 14.37-1.03-10.13 7.78-19.28 18.01-13.73-2.21-13.14-18.82-72.82-89.63-64.37Z" style="fill:#d3d3d3"/><path d="M407.16 166.7s-6.13-1.28-13.13 2.35c-5.75 2.8-9.14 5.95-12.87 11.36s-4.84 8.51-4.68 9.65 1.89.23 4.75-.46 5.14-1.02 6.5-2.5 3.09-6 6.81-11.5c2.65-3.92 7.96-7.96 12.62-8.9ZM466.15 243.64c-74.13-28.77-116.2 8.92-116.2 8.92-1.13 16.15 9.64 41.67 17.18 43.36 6.01-3.02 9.25-6.61 9.25-6.61s3.62-14.32 8.96-15.84c4.69-1.33 14.55 4.51 27.51 12.39 8.05 1.7 15.13 1.36 24.23 1.07 17.34-6.67 21.26-12.39 27.31-22.61 6.62-11.17 5.25-19.08 1.75-20.68Zm-11.48 15.65c-2.96 4.95-10.71 15.16-23.4 17.14-12.68 1.98-23.26-1.75-28.26-7.1-6.41-6.85-13.25-11.55-17.69-5.34-4.16 5.82-5.75 14.23-10.26 17.45-5.14 3.67-10.92 7.58-14.58 2.31-4.4-6.32-7.71-21.53-7.88-25.33-.1-2.29 2.9-5.24 8.8-8.89 5.9-3.65 36.57-15.93 71.22-8.95 33.33 6.72 24.82 14.1 22.05 18.71Z" style="fill:#d3d3d3"/><path d="M370.94 281.47c-1.76 1.68-5.96 3.65-7.81 1.9s-7.2-16.28-7.65-21.59 4.38-9.18 8.78-10.98 1.42 1.57 1.73 7.24c.92 17.27 6.11 22.32 4.95 23.43ZM372.04 250.12c-.03-1.36-.1-2.27 1.85-3.04s2.1-1.07 2.55-.28.13 16.89 1.41 24.22c.16 1.37-.57 2.83-.9 4.01s-1.21 2.93-1.54 2.16-2.98-6.53-3.37-27.06ZM443.98 246.03c1.86.67 5.09 1.07 4.37 7.87s-.79 9.46-2.36 11.7-4.07 3.7-7.52 5.51c-2.81 1.48-3.06 1.26-.97-7.22 1.71-6.93 2.26-15.68 1.74-17.59s3.62-.67 4.74-.27ZM501.43 236.88c-4.4-6.17-13.9-2.19-13.87 9.53.03 9.6 3.8 17.87 10.75 15.67 8.15-2.59 7.52-19.03 3.11-25.2Zm-3.63 21.82c-4.58.89-7.01-5.15-7.17-10.43-.16-5.29 1.4-11.23 5.81-10.56 4.4.67 5.87 4.84 6.05 9.41.18 4.57-.11 10.69-4.69 11.58Z" style="fill:#d3d3d3"/><path d="M500.11 247.58c-.12-3.02-1.09-5.78-4.01-6.23-2.91-.45-3.95 3.49-3.84 6.99.11 3.49 1.71 7.49 4.74 6.9s3.22-4.64 3.1-7.66Z" style="fill:#d3d3d3"/></g><g id="j"><path d="M323.45 408.1s-7.75 7.4-9.89 17.58c-2.41 11.52-3.82 33.65 4.4 38.77 8.22 5.12 24.39 10.8 30.47 10.19s18.19.05 18.19.05-2.38 4.49-13.04 6.52-22.77.99-36.99-6.93c-14.22-7.91-10.97-33.61-10.05-40.41.61-4.51 2.02-21.56 16.9-25.76Z" style="fill:#d3d3d3"/><path d="M387.93 412.07s5.6-1.79 5.71-6.59c.06-2.4 1.47-5.61-1.88-8.98-2.69-2.71-8.13-6.43-12.04-8.04 1.6 4.3.94 10.73.36 12.81-.62 2.26-2.6 6-1.85 6.21.75.21 5.08 1.76 5.08 1.76s3.38 1.47 4.11 2.37c-1.31-.6-5.07-1.95-8.65-2.98-.15-.04-.27-.08-.4-.12.14 1.4.25 4.16-.34 7.87-.67 4.15-2.66 9.02-3.59 11.14l9.39 2.83-9.72-2.1-.16.35s1.46 2.5.75 8.55c-.53 4.56-2.34 8.33-3.2 9.92l10.11 2.56-10.54-1.81-.03.05s-.07 2.84-.56 7.57c-.49 4.73-3.86 11.28-5.98 12.56-2.11 1.28-7.44 1.91-13.51 2.15-2.12.08-4.3.07-6.24-.03 12.57 2.17 29.68-.29 29.68-.29s10.34-.53 12.07-11c1.3-7.82-2.37-8.54-3.59-8.57 1.33-.1 5.88-1.03 7.03-8.81 1.12-7.62-3.55-10.34-3.55-10.34s5.71.03 6.84-9.02c1.17-9.33-5.33-10.02-5.33-10.02ZM364.85 350.69c-9.48 9.34-10.05 15.83-10.92 18.57-1.79 5.63-3.56 6.24-5.67 9.42-1.73 2.6-3.03 5.86-3.66 7.61 1.74-1.27 3.42-1.96 4.62-2.06 6.13-.51 16.01-.32 16.01-.32s1.02-4.8 2.05-7.98c1.71-5.3 6.45-8.06 8.01-22.65.09-.83.08-1.59.01-2.29-3.09-3.18-6.82-3.89-10.45-.31Z" style="fill:#d3d3d3"/><path d="M379.63 396.71c.39-3.14 0-6.56-.89-8.63-.57-.19-1.1-.33-1.55-.39-8.31-1.09-28.04-2.93-33.2 1.27-1.3 1.06-3.3 3.11-5.56 5.58 1.25-3.24 3.15-5.69 5.1-7.4 1.05-3.04 4.21-9.05 6.06-11.04 2.07-2.23 3.14-4.48 4.53-10 1.39-5.53 6.63-13.49 11.51-16.92 4.05-2.84 7.62-.65 9.57 1.2-.84-4.97-5.52-6.51-8.82-5.94-4.99.87-7.59 4.86-11.57 11.69-3.23 5.54-12.9 17.61-14.3 20.91-1.08 2.53-8.05 20.01-11.23 27.97-3.71 4.39-6.58 7.92-6.58 7.92-14.24 25.59-4.13 46.94-1.14 48.93 2.29 1.52 12.19 5.11 18.54 7.03 4.87.51 16.44 1.24 22.5-.96 6.88-2.49 8.12-15.16 7.68-20.67 3.7-4.08 4.49-13.54 2.72-19.27 2.91-2.78 3.19-6.56 4.24-11.27.97-4.33.32-7.23-.07-8.57-1.46-.45-.44-.46.52-2.41 1.19-2.44 1.45-5.27 1.92-9.05Z" style="fill:#d3d3d3"/></g><g id="k"><path d="M249.73 562.55s-.83 3.01 61.28 5.22 199.13-21.89 265.37-66.59 67.17-52.26 67.17-52.26-8.16 24.83-51.26 52.63c-43.1 27.8-126.94 79.67-261.21 83.37-39.44.6-65.21.75-81.35-22.36ZM211.44 579.1s-10.57-1.76-20.67-23.98c43.38-39.93 73.94-49.83 87.7-54.81-57.02 39.61-67.03 78.8-67.03 78.8Z" style="fill:#d3d3d3"/></g></svg>