<?xml version="1.0" encoding="UTF-8"?>
<svg xmlns="http://www.w3.org/2000/svg" viewBox="0 0 800 680.25">
  <g id="svg-back">
    <rect x="-16.77" y="-16.61" width="833.55" height="713.48"/>
  </g>
  <g id="svg-main"/>
  <g id="svg-1"/>
  <g id="svg-2">
    <path d="M472.31,525.26c-12.32-3.23-14.73,7.16-15.19,11.8,.6,.42,1.2,.75,1.82,1.11,.36-1.44,.87-5.57,5.21-8.52-4.39,5.17-3.94,7.96-4.09,9.18,.74,.45,1.55,1,2.46,1.77,.48-1.8,2.27-7.21,7.55-10.17-5.32,4.59-6.05,9.14-6.56,11.06,.84,.79,1.77,1.78,2.82,3.04,.71-1.7,2.67-8,9.49-11.24-5.88,3.56-8.1,10.45-8.65,12.28,.92,1.19,1.7,2.48,2.38,3.81,.87-1.27,4.46-7.57,11.3-9.87-6.1,2.77-10.05,9.59-10.69,11.13,.63,1.42,1.22,2.74,1.74,3.95,.84-.9,3.62-4.61,8.72-5.22-5.74,1.65-7.44,6.25-8,7.14,2.81,8.3,2.3,12.79,2.3,12.79,0,0-1.79-8.22-3.73-12.12-1.37-.15-7.79,1.06-10.58,3.69,2.09-2.67,8.2-5.31,9.54-5.48-.65-1.25-1.13-2.1-2-3.46-1.53-.02-8.76,1.77-10.91,4.69,1.55-2.8,8.48-5.73,9.99-6.14-.8-1.18-1.35-1.89-2.33-3.07-2.01,.28-9.27,2.73-12.34,5.55,2.26-3.18,9.51-6.42,11.34-6.82-.93-1.06-1.4-1.59-2.48-2.58-1.94,.11-8.26,1.18-13.31,5.35,4.25-4.96,10.25-6.24,12.01-6.52-.74-.63-1.51-1.24-2.32-1.82-3.88,0-5.6,.26-11.32,2.85,4.05-3.56,8.59-3.76,10.04-3.72-.49-.32-1-.63-1.52-.92-3.17-.5-9.15-.67-11.08,4.64-3.59,9.92,2.05,16.66,9.52,21.33,7.47,4.67,22.13,10.68,25.11,23.45,9.57-25.22,13.27-57.79-6.23-62.91Z" style="fill: #bababa;"/>
    <path d="M498.57,517.1c-9.9,3.48-6.75,11.68-4.93,15.06,.6,0,1.16-.04,1.75-.08-.42-1.15-1.98-4.2-.37-8.22-.61,5.56,.99,7.25,1.44,8.15,.72-.03,1.52-.03,2.5,.07-.5-1.45-1.78-5.97,.46-10.43-1.52,5.59,.09,9.03,.62,10.57,.94,.15,2.03,.4,3.33,.77-.3-1.49-1.87-6.7,1.3-12.05-2.37,5.14-.71,10.87-.24,12.37,1.18,.39,2.31,.91,3.38,1.51,0-1.26-.44-7.22,3.16-11.94-2.89,4.71-2.44,11.18-2.17,12.53,1.09,.67,2.1,1.31,3.01,1.9,.16-1,.34-4.82,3.54-7.59-3.16,3.77-2.2,7.7-2.16,8.57,5.75,4.37,7.47,7.67,7.47,7.67,0,0-5.02-4.79-8.14-6.56-1.01,.53-4.83,4.32-5.52,7.39,.19-2.79,3.15-7.41,3.98-8.14-1.02-.55-1.74-.91-2.96-1.44-1.06,.69-5.16,5.25-5.29,8.24-.23-2.62,3.15-7.82,3.99-8.8-1.09-.44-1.79-.67-3.01-1.02-1.24,1.12-5.07,6.14-5.86,9.48,.07-3.21,3.53-8.77,4.59-9.88-1.12-.3-1.69-.45-2.89-.62-1.27,.97-5.1,4.61-6.62,9.79,.61-5.35,4.12-8.99,5.19-9.99-.8-.09-1.6-.15-2.43-.17-2.65,1.78-3.7,2.76-6.41,7.17,1.13-4.3,4.13-6.53,5.14-7.17-.48,.01-.97,.03-1.46,.07-2.39,1.12-6.56,3.77-5.42,8.28,2.12,8.43,9.09,10.43,16.34,10.17,7.25-.26,20.03-2.92,27.95,4.42-5.1-21.63-17.6-45.57-33.27-40.07Z" style="fill: #bababa;"/>
    <path d="M397.14,109.2c-.54,12.27-10.81,11.52-15.22,10.63-.21-.67-.35-1.32-.5-1.99,1.43,.08,5.38,.8,9.34-2.37-6.02,2.57-8.46,1.35-9.62,1.14-.2-.81-.48-1.71-.92-2.77,1.8,.07,7.29-.03,11.53-4.05-5.75,3.59-10.15,2.96-12.06,2.88-.49-1-1.14-2.14-1.99-3.47,1.77-.17,8.14-.18,13.07-5.53-4.96,4.4-11.95,4.48-13.79,4.46-.84-1.19-1.8-2.28-2.83-3.28,1.41-.44,8.25-1.95,12.32-7.59-4.3,4.83-11.71,6.52-13.31,6.67-1.12-.99-2.17-1.91-3.14-2.73,1.06-.52,5.28-2.01,7.31-6.54-3.16,4.82-7.89,5.07-8.87,5.32-6.85-4.96-11.12-5.78-11.12-5.78,0,0,7.06,4,10.1,6.91-.25,1.31-3.2,6.88-6.42,8.69,3.06-1.16,7.24-6.04,7.78-7.22,.96,.96,1.61,1.64,2.62,2.84-.42,1.42-4.14,7.56-7.44,8.71,3.02-.63,7.7-6.17,8.51-7.45,.86,1.08,1.36,1.79,2.16,3.03-.83,1.77-5.17,7.76-8.64,9.78,3.58-1.17,8.63-6.93,9.53-8.49,.71,1.16,1.07,1.74,1.67,3.03-.66,1.76-3.45,7.27-8.73,10.73,5.79-2.5,8.68-7.66,9.44-9.2,.37,.86,.71,1.75,1.02,2.66-1.1,3.58-1.84,5.08-5.86,9.61,4.44-2.72,5.92-6.84,6.3-8.19,.15,.55,.3,1.1,.42,1.66-.44,3.06-2,8.63-7.44,8.88-10.17,.47-14.77-6.66-16.93-14.87-2.17-8.22-3.51-23.44-14.42-29.84,25.97-1.61,57.04,4.29,56.18,23.73Z" style="fill: #bababa;"/>
    <path d="M341.37,102.8c10.23,10.55,1.15,18.86-3.25,21.96-.76-.37-1.44-.78-2.14-1.2,1.25-1.18,5.11-4.03,5.61-10.07-2.71,7.35-5.77,8.47-6.91,9.31-.88-.49-1.88-.99-3.17-1.47,1.54-1.51,5.97-6.37,5.95-13.35-1.6,7.95-5.76,11.26-7.4,12.86-1.27-.4-2.8-.77-4.65-1.11,1.31-1.68,6.53-7.22,5.91-15.91-.25,7.92-5.92,14.07-7.44,15.66-1.72-.25-3.46-.3-5.18-.23,.78-1.59,5.08-8.78,3.52-16.95,.67,7.7-3.94,15.54-5.13,17.06-1.78,.16-3.44,.32-4.96,.49,.43-1.35,2.59-6.25,.31-11.72,1.6,6.71-2.07,11.03-2.65,12.09-9.94,1.89-14.16,4.93-14.16,4.93,0,0,9.28-2.86,14.3-3.12,.93,1.29,3.35,8.44,2.29,12.72,1.5-3.61,.69-11.26,.1-12.7,1.62-.05,2.75-.06,4.62,.05,.89,1.53,3.18,9.81,1.47,13.63,1.93-3.14,.95-11.77,.5-13.52,1.64,.13,2.67,.29,4.41,.6,.85,2.17,2.51,10.86,1.41,15.55,1.92-4.07,1.07-13.2,.43-15.26,1.59,.33,2.39,.5,4.01,1.03,.99,2.02,3.5,8.97,2.17,16.41,2.58-7.09,.47-13.84-.26-15.77,1.05,.38,2.11,.81,3.15,1.3,2.21,3.9,2.91,5.78,3.55,12.99,1.28-6.09-1.09-10.77-1.95-12.2,.6,.32,1.2,.65,1.79,1,2.3,2.9,5.86,8.82,1.61,13.77-7.94,9.24-17.92,7.38-26.84,2.52-8.93-4.86-23.28-16.2-37.8-11.95,19.93-23.91,50.58-46.1,66.78-29.39Z" style="fill: #bababa;"/>
    <path d="M466.85,498.86c-3.06,6.95,2.83,9.34,5.52,10.05,.3-.32,.56-.63,.82-.97-.82-.35-3.2-1.03-4.53-3.87,2.64,3.07,4.32,3.06,5.02,3.27,.34-.4,.73-.82,1.27-1.28-1.01-.45-4.03-2.01-5.28-5.4,2.2,3.56,4.81,4.42,5.9,4.9,.54-.42,1.22-.88,2.05-1.38-.94-.58-4.46-2.32-5.73-6.64,1.54,3.79,5.4,5.75,6.42,6.24,.79-.43,1.62-.77,2.47-1.04-.66-.63-4.04-3.34-4.75-7.57,1.06,3.85,4.7,6.82,5.55,7.34,.89-.24,1.73-.46,2.49-.65-.45-.58-2.38-2.56-2.26-5.62,.43,3.53,2.98,4.97,3.46,5.38,5.15-.87,7.75-.16,7.75-.16,0,0-5.01,.29-7.49,1.06-.22,.79-.11,4.69,1.18,6.57-1.38-1.48-2.36-5.33-2.33-6.13-.8,.27-1.34,.47-2.23,.85-.16,.9,.22,5.32,1.74,6.86-1.5-1.17-2.58-5.53-2.68-6.46-.77,.36-1.24,.62-2.03,1.09-.02,1.21,.74,5.71,2.11,7.79-1.66-1.63-2.89-6.2-2.95-7.31-.71,.45-1.07,.67-1.75,1.22-.11,1.15-.08,4.97,1.9,8.34-2.52-2.97-2.72-6.62-2.71-7.68-.44,.37-.87,.77-1.29,1.2-.37,2.28-.37,3.32,.62,6.93-1.71-2.72-1.41-5.41-1.25-6.26-.23,.26-.46,.53-.69,.81-.59,1.82-1.25,5.33,1.69,6.96,5.51,3.05,10,.35,13.45-3.61,3.45-3.96,8.36-12.03,16.16-12.59-13.95-8-32.78-13.23-37.62-2.22Z" style="fill: #bababa;"/>
    <path d="M324.75,161.38c.55,.02,1.08,.05,1.65,.02,.83-1.67,1.94-4.55,1.54-7.36-4.21,1.14-10.54,1.1-16.9-5.49-9.62,5.35-16.61,22.13-19.7,37.54,7.2-7.14,19.29-5.05,26.1-5.04,6.82,.01,13.29-2.08,15.02-10.07,.92-4.27-3.07-6.62-5.35-7.6-.46-.02-.92-.02-1.37-.02,.96,.57,3.86,2.57,5.05,6.57-2.69-4.05-3.7-4.93-6.25-6.52-.77,.05-1.53,.13-2.27,.24,1.04,.9,4.45,4.21,5.19,9.21-1.59-4.81-5.3-8.11-6.52-8.98-1.12,.2-1.65,.36-2.69,.67,1.03,1.01,4.46,6.12,4.63,9.13-.85-3.11-4.61-7.71-5.81-8.72-1.13,.37-1.78,.61-2.79,1.05,.82,.89,4.16,5.66,4.03,8.13-.21-2.8-4.21-6.95-5.23-7.56-1.13,.53-1.8,.9-2.74,1.45,.81,.66,3.73,4.91,4,7.52-.74-2.87-4.46-6.3-5.42-6.77-2.87,1.76-7.43,6.41-7.43,6.41,0,0,1.52-3.15,6.77-7.44,0-.81,.78-4.53-2.3-7.97,3.09,2.5,3.39,6.08,3.57,7.01,.84-.58,1.77-1.21,2.77-1.87,.21-1.27,.43-7.37-2.43-11.7,3.53,4.32,3.3,9.93,3.35,11.11,.99-.59,2.03-1.12,3.12-1.52,.31-1.12,1.22-4.73,.43-8.53,.15,.1,.31,.19,.47,.28,1.07,3.65,.26,6.83,.08,7.91,1.2-.39,2.22-.66,3.1-.83,.32-1.02,1.09-2.92,.99-5.73,.19,.03,.38,.05,.57,.08,.26,2.48-.28,4.59-.55,5.48,.91-.13,1.67-.16,2.34-.15,.32-.69,1.33-1.9,1.31-5.07,.18,0,.35,0,.52,0,.28,2.43-.55,4.27-.82,5.09Z" style="fill: #bababa;"/>
    <path d="M432.56,555.94c-.22-.56-.44-1.1-.62-1.69,1.42-1.45,4-3.64,7.04-4.23,.33,4.75,2.66,11.27,11.75,15.46-2.05,11.85-16.84,25.1-31.63,33.83,4.77-10-1.73-21.71-4.2-28.73-2.46-7.02-2.64-14.46,4.98-19.11,4.07-2.49,7.94,.78,9.76,2.78,.19,.47,.35,.94,.51,1.41-.94-.79-4.04-3.05-8.59-2.84,5.14,1.31,6.42,2.04,8.98,4.1,.23,.81,.42,1.62,.57,2.43-1.31-.75-5.94-3.07-11.37-2.04,5.53-.09,10.27,2.55,11.61,3.5,.2,1.23,.22,1.83,.27,3.02-1.42-.7-7.91-2.39-11.08-1.48,3.52-.24,9.61,1.98,11.08,2.85,.03,1.3,.02,2.05-.08,3.26-1.21-.53-7.34-2.25-9.84-1.23,2.96-.79,8.68,1.84,9.68,2.67-.14,1.36-.28,2.18-.51,3.34-.97-.59-6.4-2.08-9.19-1.42,3.22-.26,8.1,2.33,8.93,3.15-.78,3.6-3.94,9.97-3.94,9.97,0,0,2.7-2.7,5.23-9.66,.84-.3,4.39-2.44,9.05-.49-3.69-2.29-7.49-1.3-8.51-1.15,.3-1.07,.61-2.26,.94-3.53,1.24-.68,7.45-3.09,12.94-1.7-5.72-2.09-11.42,.17-12.67,.55,.26-1.23,.42-2.5,.44-3.77,1.04-.72,4.43-2.96,8.64-3.51-.15-.12-.3-.25-.46-.39-4.15,.21-7.13,2.19-8.19,2.77-.03-1.38-.12-2.53-.26-3.5,.94-.69,2.62-2.17,5.55-3.08-.1-.18-.19-.37-.29-.56-2.65,.63-4.63,1.93-5.45,2.54-.2-.99-.44-1.78-.69-2.47,.6-.58,1.48-2.05,4.76-3.17-.07-.18-.14-.36-.2-.53-2.61,.58-4.21,2.1-4.96,2.67Z" style="fill: #bababa;"/>
    <path d="M505.76,123.88c-3.79-.25-5.56-7.33-1.77-11.37s10.36-5.31,9.85-12.88c2.53,10.61,3.79,20.72-1.01,23.75s-7.07,.51-7.07,.51Z" style="fill: #bababa;"/>
    <path d="M531.3,139.07c-2.1-1.48-.62-6.19,3-7.18s7.85,.6,10.23-3.95c-2.29,7.01-5.13,13.28-8.97,13.33s-4.26-2.21-4.26-2.21Z" style="fill: #bababa;"/>
    <path d="M441.65,84.65c-2.94-5.84-10.44-13.34-20.07-16.85,3.75,8.75-4.68,15.64-8.98,25.72-3.81,8.92,5,18.14,13.08,14.33-3.28-1.14-5.94-3.01-8.05-6.41-3.15-5.08,1.33-14.87,7.05-14.52,3.02,.19,4.41,1.77,5.05,3.22,.17,.25,.33,.7,.45,1.46,.11,.6,.1,1.02,.1,1.02,.2,3.22-3.94,5.41-5.99,1.84-1.23-2.13,.94-4.63,2.35-5.2-.42-.05-.88-.04-1.39,.05-4.03,.67-7.08,7.1-4,11.15,2.55,3.35,5.26,4.62,8.93,5.38,12.76,.9,15.24-13.72,11.48-21.19Z" style="fill: #bababa;"/>
    <path d="M484.88,96.63c.02-7.77-3.01-15.43-7.93-22.71-.77,12.81-10.13,10.25-13.65,20.94-1.8,5.46-1.13,10.22-.1,12.29,.92-.28,2.78-.61,4.25-.64-.15-1.42-1.63-4.75,.12-8.72,2.21-5,8.11-6.23,8.11-6.23,0,0,4.63,4.12,3.2,10.95-.59,2.82-3.43,4.85-4.72,5.36,1.47,.8,2.76,2.24,3.59,3.13,4.14-1.33,7.11-7.71,7.13-14.37Z" style="fill: #bababa;"/>
    <path d="M336.66,576.18c-3.23-1.99-8.78,2.74-8.04,8.23s5.35,10.33,.54,16.21c8.22-7.17,15.12-14.66,12.97-19.92s-5.47-4.52-5.47-4.52Z" style="fill: #bababa;"/>
    <path d="M298.98,566.21c-2.13-2.28-7.56,.27-8.17,4.79s2.01,9.36-3.09,12.98c8.08-3.91,15.18-8.36,14.61-13s-3.36-4.77-3.36-4.77Z" style="fill: #bababa;"/>
    <path d="M389.42,588.13c-2.49,7.37-7.82,13.63-14.83,18.94,3.41-12.37-6.28-12.97-6.16-24.22,.06-5.75,2.23-10.03,3.87-11.67,.77,.56,2.43,1.47,3.81,1.98-.6,1.3-3.08,3.97-2.7,8.29,.47,5.45,5.66,8.51,5.66,8.51,0,0,5.71-2.4,6.56-9.33,.35-2.85-1.68-5.7-2.74-6.6,1.65-.28,3.33-1.23,4.41-1.8,3.49,2.59,4.24,9.59,2.11,15.9Z" style="fill: #bababa;"/>
  </g>
  <g id="svg-3">
    <path d="M537.06,451.64c-.18,.45-1.07,2.29-1.41,3.12,.49,.15,1.05,.17,1.53,.31-.04-.97-.05-1.52-.03-2.51,0-.23,0-.79-.09-.92Z" style="fill: #bababa;"/>
    <path d="M517.02,429.38s-28.11-6.4-28.67-6.48-.53,.37-.14,.68c0,0,1.63,1,4.32,1.51,2.69,.51,12.59,2.78,12.59,2.78l-.02-.79,2.32,.55-.06,.91,8.46,1.89s.48-.01,.78-.42c.26-.35,.43-.62,.43-.62Z" style="fill: #bababa;"/>
    <path d="M601.72,447.79c.4-4.11-5.2-4.36-5.2-4.36,0,0,1.69-5.17-1.81-8.77-3.5-3.6-8.27-.21-8.27-.21,0,0,.49-2.03-.28-6.25-.39-2.1-2.02-3.45-3.57-4.27,.86-.06,1.92-.36,3.2-1.1,4.39-2.53-1.28-8.12-1.28-8.12,0,0,8.34,2.59,6.68-4.68-1.66-7.27-7.05-3.65-7.05-3.65,0,0,.08-3.84-2.74-5.3-2.82-1.46-6.1,1.77-6.1,1.77,0,0,2.86-5.05-1.28-8.12-4.14-3.07-8.5,2.13-8.5,2.13,0,0,2.37-3.03,.28-5.9-1.64-2.25-4.07-1.85-5.05-1.57,1.31-.49,5.14-2.33,4.12-7.11-1.22-5.75-9.28-5.05-9.28-5.05,0,0,6.53-3.21,2.3-8.37-4.24-5.15-8.22-.8-8.22-.8,0,0-2.3-6.74-7.72-2.83-5.42,3.91-1.83,6.63-1.83,6.63,0,0-4.04,1.98-4.3,4.62-.26,2.64,5.12,5.24,5.12,5.24,0,0-4.23-2.19-7.54,1.34-2.36,2.52-1.46,5.64-.76,7.23-.72-1.1-2.2-2.57-4.81-1.85-3.96,1.09-2.42,6.58-2.42,6.58,0,0-4.96-.78-5.92,2.98-.96,3.76,2.68,5.89,2.68,5.89,0,0-3.94-2.16-7.66-.45-3.72,1.71-2.51,7.46-2.51,7.46,0,0-3.53-3.31-7.36-.42-3.84,2.88-.92,6.43-.92,6.43,0,0-2.29,.26-3.5,1.86-1.7-.38-4.67-1.04-6.53-1.35-2.72-.46-7.07-.39-7.86,2.59-.78,2.98,.26,5.46,3.24,6.24,2.98,.78,14.8,3.12,14.8,3.12l.3,2.78c-.51,1.21-.8,2.59-.57,4.01,.41,2.48,2.97,3.82,5.21,4.54-1.98,.05-4.4,.98-6.1,4.56-3.36,7.08,3.28,8.91,3.28,8.91,0,0,.84,6.6,4.3,7.53,3.46,.93,6.39-1.75,6.39-1.75,0,0,.16,4.46,2.48,7.94,2.33,3.49,8.77,1.15,8.77,1.15,0,0-1.96,1.88-2.25,4.82-.29,2.93,4.94,4.04,4.94,4.04,0,0-7.62,5.18-1.15,8.77,6.46,3.59,8.47-1.84,8.47-1.84,0,0,5.25,.81,6.56-3.51,1.21-3.97-1.73-6.58-2.2-6.98,.43,.34,2.93,2.23,5.68,1.69,2.72-.54,2.6-3.99,2.55-4.66,.07,.69,.65,4.36,5.46,4.56,5.31,.22,6.18-5.62,6.18-5.62,0,0,3.5,3.6,7.57,1.33,2.48-1.38,2.78-5.18,2.63-7.93,.67,2.14,2.47,4.53,7.22,4.15,8.36-.67,8.2-8.09,8.2-8.09,0,0,4.59,4.59,8.77,1.15,4.19-3.44,.39-7.07,.39-7.07,0,0,4.34-1.95,4.74-6.05Zm-58.66-55.58c3.64,3.79,4.77,8.47,1.29,12.88,1.52-.27,2.96,.26,4.37,.56,.22-.12,.35-.69,.39-.93,.29-1.72,.02-3.01,.02-4.62-.06-2.53-.06-8.7,2.02-9.79,1.79,2.28,.99,6.67,.33,9.74-.39,1.81-1.09,3.81-.97,5.66,.21,0,.52,.07,.73,.01,.81-.23,3.35,0,4.13,.34-2.35-5.07-2.12-9.45,2.96-12.5-.19,.11-.44,.25,.14-.09-.49,5.42-1.04,10.81-1.49,16.24-2.42-.26-4.28-.45-6.48-.52,.05,1.17-.44,3.45-1.35,4.91-.94-1.51-1.29-3.35-1.01-5.11-2.18-.19-4.36-.47-6.53-.66,.01,.13,.96-10.72,1.45-16.11Zm-35.83,36.86l.07,4.88-1.56-.22-.58-5.34s-13.01-2.92-14.96-3.31c-1.95-.4-4.08-1.77-3.64-4.13,.4-2.17,3.2-2.64,5.3-2.36,2.1,.27,14.9,3.31,14.9,3.31l3.49-4.8,1.61,.36-2.75,5.01,8.37,2.05s1.8,4.08-1.19,6.54c-6.05-1.21-9.06-1.98-9.06-1.98Zm23.2,28.31c-.73,0-1.25-.21-1.92-.31-.21-.03-.52-.09-.73-.17,.46-2.05,.75-3.49,.96-5.59,0-.08,.17-.65,.12-.72-.05-.07-.3-.08-.39-.09-.96-.08-1.59-.26-2.48-.41-.36,2.09-.74,4.17-1.24,6.24-.49-.07-2.07-.34-2.52-.4-.08-.33,.18-1.1,.25-1.44,.1-.45,.18-1.11,.27-1.56,.38-1.87,.81-3.73,1.07-5.62,1.96,.3,3.97,.74,5.94,1.04,.66,.1,1.26,.23,1.92,.36,.06,.01,.28,.04,.31,.08,.03,.05-.11,.34-.12,.4-.05,.78-.16,1.17-.22,1.95-.04,.57-.35,1.54-.43,2.11-.21,1.5-.33,2.69-.81,4.13Zm7.82,1.47c-.23-.03-.56-.09-.72-.19,.04-.3,.02-.78-.03-1.07-.05-.3,.09-.44-.18-.58-.18-.09-.74-.16-.93-.18-.5-.04-.93-.17-1.43-.2-.33,.54-.4,.92-.76,1.44-.43-.07-2.43-.46-2.9-.54,.32-.45,.77-1.32,.94-1.61,1.23-2.08,2.69-4.22,3.66-6.43,.27,.04,.54,.09,.74,.12,.97,.14,1.58,.24,2.5,.48-.01,.12,.05,.25,.06,.38,.2,3.02,1.08,5.77,1.2,8.77-.8-.05-1.42-.3-2.16-.39Zm11.5,2.03c-.83-.14-1.78-.24-2.6-.43,.06-.96,.43-2.18,.6-3.13,.23-1.25,.4-2.27,.55-3.38-.41,.04-.83-.13-1.28-.22-.24,.63-.62,1.9-.92,2.72-.25,.7-.51,1.22-.77,1.68-.39,.68-.86,1.32-1.53,1.49-.6,.15-1.78,.1-2.37-.24-.31-.18-.08-.3-.06-.67,0-.12,.31-1.39,.3-1.39,.32,.21,.71,.2,1.05,.02,.34-.18,.57-.65,.73-1,.88-1.9,1.3-3.34,1.78-5.17,1.43,.32,2.19,.31,3.52,.7,.15,.04,.57,.09,.72,.13,.6,.18,1.26,.17,1.86,.35-.31,2.67-.95,5.92-1.57,8.53Zm9.98,1.91c-.62-.16-1.76-.3-2.38-.45,.24-1.55,.75-3.17,.99-4.72-1.25,1.62-3.13,2.64-4.51,4.15-.7-.22-1.43-.34-2.17-.37,.19,0,1.06-5.75,1.14-6.29,.1-.64,.36-1.89,.46-2.46,.56,.1,1.75,.25,2.33,.54-.3,1.57-.51,2.96-.81,4.53,1.37-1.26,2.32-2.15,3.69-3.42,.17-.15,.36-.38,.57-.57,.18,0,.61,.04,.78,.07,.21,.04,.42,.1,.65,.1,.23,0,.47,.09,.75,.14-.4,2.87-.89,5.5-1.5,8.75Zm22.92-20.85c-.29,1.48-.69,6.07-3.88,7.84-2.08,1.15-2.73,.87-3.38,.71-.65-.16-2.12-.58-2.67-.73s-2.54-2.99-2.54-2.99l4.25,.98,.25-.64s-32.28-7.02-33.21-7.11c-.94-.09-1.51-.05-.9,.48,.61,.53,1.47,.43,1.47,.43,0,0-1.25,1.2-1.91,1.23s-11.28-2.52-12.21-2.61c-.94-.09-1.42-1.93-1.39-2.21,.03-.28,2.42,.33,2.42,.33l.63-.6-4.63-.92s-.74,1.82-2.85,3.03c-1.97,1.14-2.8,.58-3.73,.49s-4.02-.84-4.52-1.1c-1.08-.58-3.53-2.52-3.13-5.69,.45,2.12,1.05,2.75,1.71,2.81,.24-.54-.28-.97-.28-.97-1.45-.61-1.26-2.58-1.14-3.8,1.67,.35,6.01,1.34,6.01,1.34,0,0,3.79-3.98,1.46-8.17-2.56-.91-5.61-1.59-5.61-1.59,0,0,1.52-4.01,5.32-3.26,1.84,.46,2.51,3.36,2.51,3.36l.6-.32s-.52-4.3-4.75-3.58c2.58-1.26,4.32-1.66,4.79-1.61,.47,.05,4.43,1.09,4.86,1.51,.43,.42,1.25,2.67,1.64,4.5,.88,.65,1.83,.65,1.83,.65,0,0-.09-2.94-.85-3.86s1.88-1.89,1.88-1.89c0,0,3.45-1.46,5.04-1.3,1.59,.16,12.61,3.4,13.97,4.01,1.36,.6,2.31-.44,2.96-.37s1.84,.46,2.23,1.35,1.2,4.18-.12,6.03c-1.31,1.86-2.75,2-3.49,1.93-.75-.07-1.56-1.47-2.4-1.56-.84-.08-1.75,.49-1.75,.49,0,0,1.7-.02,2.55,1,.84,1.03,2.44,1.09,2.94,.85,.5-.24,1.38-.62,1.38-.62l22.23,6.42,.59-.23-2.53-1.19s2.24-.73,3.18-.63,2.85,.75,3.57,1.2c.71,.45,2.19,3.71,1.62,6.58Z" style="fill: #bababa;"/>
    <path d="M554.51,363.96s1.44-3.5,6.61-2.44,4.28,5.54,4.28,5.54c0,0,.62-2.54,4.94-2.05s5.54,3.8,5.54,3.8c0,0-.62-3.7,3.08-4.33s4.56,2.53,4.56,2.53c0,0-.93-4.8,3.69-5.8s6.4,3.29,6.4,3.29c0,0,1.51-4.44,5.67-2.51,4.16,1.93,1.26,6.34,1.26,6.34,0,0,3.81-2.19,5.64,1.47s-.63,5.45-.63,5.45c0,0,5.34-3.29,6.83,.67,1.49,3.95-2.83,5.29-2.83,5.29,0,0,3.01,2.1,1.38,5.52s-5.54,2.45-5.54,2.45c0,0,3.8,4.37-.03,7.63-3.83,3.27-6.69,.04-6.69,.04,0,0,6.53,5.82,3.97,11.76-2.56,5.94-9.03,2.84-9.03,2.84,0,0,6.89,5.21,4.8,10.81-2.1,5.6-8.68,4.06-10.5,2.23,3.2,4.77,9.38,5.7,12.42,.17s-.66-10.39-.66-10.39c0,0,4.49-.19,5.94-5.52,1.45-5.33-2.1-8.73-2.1-8.73,0,0,4.24,.68,6.4-2.2,2.16-2.88-.53-6.79-.53-6.79,0,0,3.76,1.34,5.75-1.93,2-3.27-1.21-6.21-1.21-6.21,0,0,2.96-1.69,2.12-5.91-.84-4.22-5.86-4.58-5.86-4.58,0,0,1.1-2.13-.76-4.41-1.86-2.28-5.67-1.91-5.67-1.91,0,0,1.64-2.66-2.03-5.25-3.67-2.59-7.2,1.01-7.2,1.01,0,0-2.5-4.91-8.04-3.21s-3.76,5.98-3.76,5.98c0,0-2.7-2.84-5.34-2.2s-2.4,2.67-2.4,2.67c0,0-2.16-3.37-5.03-2.94-2.87,.43-3.16,1.92-3.16,1.92,0,0-2.55-6.87-8.26-5.56s-3.98,5.46-3.98,5.46Z" style="fill: #bababa;"/>
    <path d="M608.99,405.25s3.5-2.47,7.25,1.6c3.75,4.07-.72,10.45-.72,10.45,0,0,7.31,1.01,5.1,8.5-2.21,7.49-7.36,7.13-7.36,7.13,0,0,2.83-.17,3.81,3.48,.98,3.65-2.26,4.96-2.26,4.96,0,0,9.19,2.97,5.31,10.89-3.88,7.92-11.3,3.49-11.3,3.49,0,0,.07,5.34-7.57,4.74,3.76-2.15,5.32-7.48,5.32-7.48,0,0,4.35,2.5,8.08-2.32,3.73-4.82-2.63-9.44-2.63-9.44,0,0,2.65-2.85-.43-6.26-3.07-3.41-4.04-2.62-4.04-2.62,0,0,7.67-1.18,7.46-8.16-.21-6.98-3.6-7.16-3.6-7.16,0,0,3.88-3.32,2.2-7.34-1.68-4.02-4.6-4.45-4.6-4.45Z" style="fill: #bababa;"/>
    <path d="M523.57,487.19s-1.04,7.27,5.07,10.25c7.35,3.58,11.27-5.22,11.27-5.22,0,0,2.16,4.28,8.67,5.29,8.17,1.27,10.36-8.27,10.36-8.27,0,0,1.87,3.56,5.78,3.72,4.64,.19,4.42-4.53,4.42-4.53,0,0,.91,7.42,9.69,5.71,10.12-1.98,6.52-12.22,6.52-12.22,0,0,10.68-4.62,3.95-14.61,1.25,11.53-7.52,12.12-7.52,12.12,0,0,3.24,8.87-3.26,11.86-6.8,3.13-9.3-5.89-9.3-5.89,0,0-1.25,6.52-7.83,3.28-3.18-1.56-4.78-5.99-4.78-5.99,0,0,.68,13.69-9.83,12.07-6.3-.97-7.19-4.26-7.19-4.26,0,0-3.08,6.31-10.4,4.42-5.17-1.34-5.61-7.74-5.61-7.74Z" style="fill: #bababa;"/>
    <path d="M179.92,281.4s-6.38,3.64-4.99,10.29c1.67,8.01,11.03,5.71,11.03,5.71,0,0-2.06,4.33,1.13,10.09,4.01,7.23,12.88,3.12,12.88,3.12,0,0-1.67,3.67,.6,6.85,2.69,3.78,6.29,.71,6.29,.71,0,0-5.31,5.27,1.42,11.15,7.76,6.79,13.65-2.33,13.65-2.33,0,0,10.19,5.61,13.96-5.83-8.35,8.05-14.19,1.48-14.19,1.48,0,0-5.02,7.99-11.37,4.69-6.64-3.46-1.04-10.96-1.04-10.96,0,0-5.92,3-7.39-4.17-.71-3.47,1.8-7.45,1.8-7.45,0,0-10.4,8.92-15.56-.38-3.1-5.58-1.04-8.29-1.04-8.29,0,0-6.88,1.43-9.86-5.52-2.11-4.91,2.67-9.18,2.67-9.18Z" style="fill: #bababa;"/>
    <path d="M317.96,258.57c-.56,.04-29.03,4.62-29.03,4.62,0,0,.16,.29,.39,.65,.27,.43,.75,.47,.75,.47l8.56-1.34v-.91l2.34-.4-.07,.79s10.02-1.63,12.74-1.97c2.72-.34,4.41-1.23,4.41-1.23,.41-.28,.47-.73-.1-.69Z" style="fill: #bababa;"/>
    <path d="M252.38,285.64c-.04,.48-.35,2.5-.43,3.4,.51,0,1.06-.15,1.55-.15-.32-.91-.49-1.44-.77-2.39-.06-.22-.24-.75-.36-.85Z" style="fill: #bababa;"/>
    <path d="M320.65,255.83c-.59-3.03-4.93-3.38-7.67-3.09-1.87,.2-4.88,.66-6.6,.93-1.1-1.67-3.37-2.08-3.37-2.08,0,0,3.13-3.35-.51-6.47-3.64-3.12-7.38-.05-7.38-.05,0,0,1.58-5.66-2.02-7.6-3.6-1.95-7.67-.04-7.67-.04,0,0,3.77-1.89,3.06-5.71-.72-3.81-5.72-3.35-5.72-3.35,0,0,1.89-5.37-1.99-6.72-2.55-.89-4.13,.49-4.91,1.54,.81-1.54,1.9-4.6-.29-7.27-3.07-3.73-7.43-1.82-7.43-1.82,0,0,5.53-2.25,5.44-4.9-.09-2.65-4-4.88-4-4.88,0,0,3.75-2.48-1.4-6.74-5.16-4.25-7.89,2.33-7.89,2.33,0,0-3.69-4.6-8.25,.27-4.56,4.87,1.76,8.5,1.76,8.5,0,0-8-1.21-9.59,4.45-1.32,4.71,2.38,6.79,3.66,7.36-.96-.34-3.36-.9-5.14,1.24-2.27,2.73-.1,5.9-.1,5.9,0,0-4.02-5.47-8.35-2.67-4.33,2.8-1.8,8.02-1.8,8.02,0,0-3.06-3.44-5.97-2.16-2.91,1.28-3.08,5.12-3.08,5.12,0,0-5.15-3.96-7.27,3.19-2.12,7.15,6.36,5.1,6.36,5.1,0,0-6.02,5.21-1.8,8.02,1.23,.82,2.27,1.19,3.12,1.3-1.59,.72-3.31,1.95-3.83,4.03-1.04,4.16-.68,6.22-.68,6.22,0,0-4.55-3.68-8.27-.32-3.72,3.37-2.37,8.63-2.37,8.63,0,0-5.61-.11-5.47,4.02,.14,4.13,4.34,6.35,4.34,6.35,0,0-4.02,3.38-.06,7.08,3.96,3.7,8.83-.59,8.83-.59,0,0-.64,7.4,7.66,8.6,4.71,.68,6.66-1.59,7.47-3.68-.32,2.74-.27,6.54,2.11,8.08,3.92,2.53,7.64-.84,7.64-.84,0,0,.49,5.88,5.8,6,4.81,.11,5.63-3.51,5.74-4.2-.09,.67-.44,4.11,2.25,4.82,2.71,.72,5.33-1.01,5.78-1.32-.5,.36-3.6,2.78-2.65,6.82,1.03,4.39,6.32,3.92,6.32,3.92,0,0,1.66,5.55,8.34,2.38,6.68-3.17-.59-8.83-.59-8.83,0,0,5.28-.76,5.19-3.71-.1-2.95-1.93-4.95-1.93-4.95,0,0,6.29,2.74,8.83-.59,2.54-3.33,2.99-7.77,2.99-7.77,0,0,2.75,2.86,6.27,2.15,3.52-.71,4.78-7.24,4.78-7.24,0,0,6.74-1.4,3.84-8.68-1.46-3.68-3.82-4.76-5.79-4.94,2.28-.57,4.92-1.75,5.49-4.19,.33-1.41,.12-2.8-.31-4.04l.48-2.75s11.94-1.57,14.97-2.17c3.03-.59,4.23-2.99,3.64-6.02Zm-64.4-21.61c1.47-.46,2.97-.13,4.4-.01,.2-.14,.25-.73,.26-.98,.06-1.75-.38-2.99-.58-4.58-.38-2.5-1.19-8.62,.73-9.97,2.07,2.02,1.85,6.49,1.59,9.61-.15,1.85-.59,3.92-.23,5.74,.21-.02,.53,0,.72-.08,.77-.33,3.32-.44,4.14-.2-2.99-4.72-3.33-9.1,1.31-12.77-.17,.14-.41,.31,.13-.11,.22,5.43,.38,10.85,.63,16.29-2.43,.05-4.31,.11-6.49,.32,.2,1.16,.02,3.47-.7,5.05-1.13-1.37-1.72-3.16-1.66-4.93-2.19,.1-4.38,.11-6.56,.19,.03,.13-.44-10.76-.65-16.17,4.1,3.28,5.83,7.78,2.96,12.6Zm-10.44,59.13c-.21,.03-.53,.06-.74,.05-.16-2.1-.3-3.56-.72-5.62-.02-.08-.03-.67-.1-.72-.07-.05-.31,.01-.4,.03-.94,.2-1.6,.22-2.49,.33,.27,2.11,.51,4.2,.65,6.33-.49,.08-2.08,.28-2.53,.35-.18-.3-.16-1.11-.18-1.45-.04-.46-.15-1.11-.2-1.57-.19-1.9-.32-3.8-.63-5.69,1.97-.29,4.01-.46,5.98-.74,.66-.1,1.27-.15,1.95-.22,.06,0,.28-.05,.32,0,.04,.04,0,.36,0,.42,.18,.76,.19,1.17,.37,1.93,.13,.56,.12,1.57,.21,2.14,.24,1.5,.47,2.67,.44,4.18-.7,.21-1.25,.17-1.93,.27Zm9.83-1.16c-.23,.04-.56,.07-.74,.03-.04-.3-.21-.75-.34-1.02-.13-.27-.05-.44-.34-.5-.2-.04-.75,.06-.95,.1-.49,.11-.94,.11-1.43,.22-.16,.61-.12,1-.3,1.6-.43,.06-2.46,.28-2.93,.34,.17-.52,.35-1.49,.43-1.82,.57-2.35,1.33-4.83,1.62-7.23,.27-.05,.54-.07,.74-.1,.97-.15,1.58-.23,2.53-.28,.03,.12,.12,.23,.17,.34,1.07,2.82,2.72,5.2,3.71,8.03-.78,.18-1.45,.13-2.18,.26Zm8.98-1.08c-.22-.94-.23-2.21-.34-3.17-.15-1.26-.28-2.29-.47-3.39-.38,.16-.83,.11-1.29,.16-.05,.67-.03,2-.08,2.87-.04,.74-.13,1.32-.24,1.83-.17,.77-.43,1.51-1.03,1.87-.53,.32-1.68,.62-2.33,.47-.35-.08-.16-.27-.26-.62-.03-.12-.11-1.42-.12-1.42,.37,.11,.74-.01,1.01-.28,.27-.27,.35-.79,.4-1.17,.28-2.07,.26-3.58,.19-5.47,1.46-.12,2.19-.34,3.57-.36,.16,0,.57-.08,.73-.09,.63,0,1.25-.2,1.88-.21,.49,2.64,.83,5.94,1,8.62-.83,.11-1.77,.29-2.61,.35Zm10.3-1.19c-.23-1.56-.21-3.25-.44-4.8-.72,1.92-2.21,3.44-3.09,5.29-.73,0-1.47,.09-2.18,.28,.19-.05-.67-5.8-.75-6.35-.09-.64-.21-1.92-.29-2.48,.56-.07,1.75-.27,2.38-.17,.18,1.59,.38,2.98,.56,4.57,.94-1.61,1.59-2.74,2.53-4.35,.11-.2,.23-.47,.37-.71,.17-.06,.59-.14,.77-.16,.21-.02,.43-.03,.65-.1,.22-.07,.48-.06,.76-.09,.46,2.86,.77,5.52,1.13,8.81-.64,.03-1.77,.23-2.41,.26Zm16.57-17.38c-.51,.23-3.64,.78-4.58,.81-.94,.03-1.8,.54-3.69-.72-2.02-1.34-2.65-3.2-2.65-3.2l-4.68,.63,.59,.64s2.43-.46,2.44-.17c0,.28-.59,2.09-1.53,2.12-.94,.03-11.69,1.89-12.36,1.82-.66-.07-1.83-1.35-1.83-1.35,0,0,.85,.16,1.49-.33,.64-.49,.08-.57-.86-.54-.94,.03-33.6,4.97-33.6,4.97l.21,.65,4.3-.71s-2.17,2.71-2.73,2.82c-.56,.11-2.05,.44-2.71,.56-.65,.12-1.32,.35-3.32-.92-3.07-1.97-3.18-6.58-3.37-8.07-.38-2.9,1.3-6.06,2.04-6.46,.74-.4,2.7-.94,3.64-.97,.94-.03,3.13,.84,3.13,.84l-2.6,1.03,.57,.26,22.6-4.98s.86,.44,1.34,.71,2.08,.31,2.99-.66c.91-.97,2.61-.84,2.61-.84,0,0-.87-.63-1.71-.6s-1.74,1.37-2.49,1.4c-.75,.02-2.17-.21-3.36-2.15-1.19-1.94-.17-5.17,.27-6.03,.44-.86,1.65-1.18,2.31-1.21,.66-.02,1.54,1.08,2.93,.56s12.6-3.05,14.19-3.1c1.6-.05,4.94,1.62,4.94,1.62,0,0,2.58,1.14,1.76,2.01s-1.1,3.8-1.1,3.8c0,0,.94,.06,1.86-.53,.5-1.8,1.47-4,1.92-4.39s4.48-1.18,4.95-1.2c.47-.02,2.18,.49,4.67,1.91-4.17-.99-4.97,3.27-4.97,3.27l.58,.36s.85-2.85,2.72-3.19c3.84-.5,5.1,3.59,5.1,3.59,0,0-3.09,.48-5.7,1.22-2.59,4.04,.93,8.25,.93,8.25,0,0,4.4-.71,6.08-.95,.04,1.22,.11,3.19-1.38,3.71,0,0-.55,.39-.34,.95,.66-.02,1.3-.61,1.89-2.7,.2,3.19-2.38,4.97-3.49,5.48Zm24.45-11.91c-1.97,.27-15.15,2.34-15.15,2.34l-.92,5.29-1.57,.12,.39-4.86s-3.05,.58-9.17,1.4c-2.82-2.64-.76-6.6-.76-6.6l8.48-1.51-2.42-5.18,1.63-.26,3.17,5.02s12.97-2.2,15.08-2.34,4.88,.5,5.14,2.7c.28,2.38-1.93,3.61-3.9,3.88Z" style="fill: #bababa;"/>
    <path d="M198.71,233.21s-3.33-2.69-7.34,1.13c-4,3.82,.05,10.47,.05,10.47,0,0-7.36,.54-5.63,8.15,1.73,7.61,6.89,7.59,6.89,7.59,0,0-2.81-.35-4.02,3.23s1.94,5.1,1.94,5.1c0,0-9.36,2.37-5.99,10.52,3.37,8.15,11.05,4.21,11.05,4.21,0,0-.41,5.32,7.25,5.22-3.62-2.39-4.83-7.81-4.83-7.81,0,0-4.5,2.21-7.91-2.84-3.41-5.05,3.23-9.25,3.23-9.25,0,0-2.46-3.02,.83-6.22s4.2-2.35,4.2-2.35c0,0-7.58-1.67-6.92-8.62,.66-6.95,4.05-6.92,4.05-6.92,0,0-3.66-3.57-1.72-7.47,1.94-3.9,4.88-4.14,4.88-4.14Z" style="fill: #bababa;"/>
    <path d="M254.08,193.05s-3.2-6.61-9.93-5.67c-8.1,1.14-6.44,10.63-6.44,10.63,0,0-4.18-2.35-10.14,.45-7.49,3.51-3.98,12.65-3.98,12.65,0,0-3.55-1.91-6.88,.14-3.95,2.43-1.13,6.23-1.13,6.23,0,0-4.9-5.65-11.22,.67-7.29,7.29,1.42,13.78,1.42,13.78,0,0-6.28,9.79,4.88,14.32-7.47-8.87-.53-14.26-.53-14.26,0,0-7.64-5.55-3.92-11.65,3.89-6.39,11.01-.3,11.01-.3,0,0-2.6-6.11,4.66-7.1,3.51-.48,7.31,2.3,7.31,2.3,0,0-8.2-10.98,1.41-15.5,5.77-2.72,8.34-.48,8.34-.48,0,0-.97-6.96,6.16-9.47,5.04-1.78,8.98,3.28,8.98,3.28Z" style="fill: #bababa;"/>
  </g>
  <g id="svg-4"/>
  <g id="svg-5">
    <path d="M330.82,363.43s-8.78-10.89-2.42-25.9c6.36-15.01,11.37-12.71,15.16-23.5,3.34-9.5,5-19.18,5-19.18,0,0,4.16,19.07,10.82,28.15s19.21,28.84,4.46,43.16c-4.75-3.08-7.62-2.26-7.62-2.26,0,0,4.14-3.98,4.53-15.25-3.31,7.64-6.94,11.09-6.94,11.09,0,0,2.23-10.24,1.58-20.19-1.97,10.5-5.78,19.72-5.78,19.72,0,0-1.17-9.68,.46-26.46-3.57,7.9-3.85,27.81-3.85,27.81,0,0-4.77-4.66-5.98-17.74-2.51,9.2,.76,18.85,.76,18.85,0,0-7.67-5.93-8.53-12.21,.9,8.89,3.32,14.63,3.32,14.63l-4.99-.72Z" style="fill: #bababa;"/>
    <path d="M375.3,372.29s-1.28-13.93,12.33-22.9c13.61-8.97,16.51-4.29,25.64-11.17,8.05-6.06,14.79-13.2,14.79-13.2,0,0-7.09,18.18-6.58,29.44,.51,11.25,.03,34.65-20.19,38.41-2.25-5.2-5.09-6.11-5.09-6.11,0,0,5.65-1.02,12.21-10.19-6.99,4.53-11.91,5.39-11.91,5.39,0,0,7.53-7.29,12.5-15.93-7.45,7.66-15.73,13.22-15.73,13.22,0,0,4.39-8.7,15.04-21.78-7.35,4.6-18.6,21.03-18.6,21.03,0,0-1.4-6.52,4.84-18.08-7.18,6.27-9.81,16.11-9.81,16.11,0,0-3.1-9.18-.35-14.89-4.18,7.9-5.33,14.02-5.33,14.02l-3.75-3.36Z" style="fill: #bababa;"/>
    <path d="M406.06,401.37s7.54-11.78,23.79-10.52c16.25,1.27,15.67,6.74,27.1,6.91,10.07,.15,19.78-1.35,19.78-1.35,0,0-16.76,10.01-23.26,19.21-6.5,9.2-21.24,27.38-39.51,17.94,1.41-5.49-.28-7.95-.28-7.95,0,0,5.09,2.66,15.9-.55-8.29-.71-12.72-3.05-12.72-3.05,0,0,10.42-1.14,19.65-4.91-10.58,1.47-20.53,.78-20.53,.78,0,0,8.8-4.18,25.24-7.97-8.63-.87-27.59,5.19-27.59,5.19,0,0,2.9-6,14.92-11.31-9.52,.55-17.63,6.7-17.63,6.7,0,0,3.19-9.16,8.86-11.97-8.15,3.67-12.81,7.8-12.81,7.8l-.9-4.96Z" style="fill: #bababa;"/>
    <path d="M411.47,446.06s12.71-5.84,25.7,4.01c12.99,9.85,9.54,14.14,19.06,20.46,8.39,5.57,17.37,9.55,17.37,9.55,0,0-19.51-.64-29.95,3.59-10.44,4.23-32.36,10.98-39.3-1.87,4.16-3.85,4.06-6.84,4.06-6.84,0,0-.8,.6,10.03,3.74-6.59-5.08-9.05-9.44-9.05-9.44,0,0,9.38,4.68,19.18,6.49-9.7-4.48-17.7-10.44-17.7-10.44,0,0,9.67,1.24,25.54,6.94-6.78-5.4-26.02-10.55-26.02-10.55,0,0,5.68-3.48,18.66-1.45-8.3-4.69-18.46-3.89-18.46-3.89,0,0,7.63-5.98,13.93-5.28-8.84-1.31-15-.37-15-.37l1.93-4.66Z" style="fill: #bababa;"/>
    <path d="M392.44,490.12s11.44,8.05,9.46,24.23c-1.98,16.18-7.42,15.35-8.1,26.77-.6,10.06,.48,19.82,.48,19.82,0,0-9.26-17.18-18.16-24.08-8.91-6.9-26.42-22.43-16.18-40.26,5.42,1.66,7.95,.07,7.95,.07,0,0-2.88,4.97-.15,15.9,1.08-8.25,3.61-12.57,3.61-12.57,0,0,.68,10.46,4.04,19.84-1-10.64,.12-20.55,.12-20.55,0,0,3.79,8.98,6.85,25.56,1.25-8.58-3.97-27.8-3.97-27.8,0,0,5.87,3.16,10.64,15.4-.13-9.53-5.92-17.91-5.92-17.91,0,0,9.01,3.59,11.57,9.38-3.31-8.3-7.23-13.14-7.23-13.14l4.99-.68Z" style="fill: #bababa;"/>
    <path d="M342.94,499.18s7.08,12.07-1.42,25.97c-8.5,13.91-13.12,10.9-18.46,21.01-4.71,8.91-7.77,18.24-7.77,18.24,0,0-1.31-19.47-6.56-29.44-5.25-9.97-14.76-31.35,1.94-43.35,4.25,3.75,7.21,3.36,7.21,3.36,0,0-4.68,3.33-6.72,14.42,4.4-7.07,8.49-9.95,8.49-9.95,0,0-3.71,9.8-4.54,19.73,3.49-10.1,8.62-18.65,8.62-18.65,0,0-.27,9.74-4.35,26.1,4.69-7.29,7.9-26.94,7.9-26.94,0,0,4.03,5.31,3.31,18.42,3.83-8.73,2.03-18.76,2.03-18.76,0,0,6.71,6.99,6.64,13.33,.42-8.93-1.13-14.96-1.13-14.96l4.82,1.45Z" style="fill: #bababa;"/>
    <path d="M301.04,482.64s-2.94,13.68-18.6,18.18c-15.67,4.5-17.03-.83-27.8,3.01-9.49,3.38-18.05,8.19-18.05,8.19,0,0,12.19-15.24,15.06-26.13,2.87-10.89,10.31-33.08,30.73-30.64,.6,5.63,3.04,7.35,3.04,7.35,0,0-5.7-.71-14.7,6.08,8.02-2.24,12.98-1.59,12.98-1.59,0,0-9.36,4.71-16.68,11.48,9.4-5.08,18.96-7.92,18.96-7.92,0,0-6.78,7-20.85,16.3,8.39-2.2,24.03-14.52,24.03-14.52,0,0-.61,6.64-10.02,15.81,8.72-3.84,14.17-12.45,14.17-12.45,0,0,.22,9.69-4.11,14.31,6.35-6.3,9.27-11.79,9.27-11.79l2.58,4.33Z" style="fill: #bababa;"/>
    <path d="M282.94,439.5s-9.23,10.51-25.11,6.81c-15.88-3.7-14.47-9.03-25.75-10.92-9.94-1.67-19.76-1.65-19.76-1.65,0,0,18.08-7.36,25.89-15.48,7.81-8.12,25.13-23.86,41.76-11.78-2.23,5.21-.93,7.9-.93,7.9,0,0-4.63-3.4-15.8-1.85,8.09,1.96,12.11,4.94,12.11,4.94,0,0-10.47-.45-20.16,1.89,10.68,.14,20.41,2.32,20.41,2.32,0,0-9.33,2.8-26.15,4.07,8.4,2.17,28.06-.97,28.06-.97,0,0-3.77,5.5-16.45,8.93,9.49,.9,18.44-3.97,18.44-3.97,0,0-4.53,8.57-10.57,10.49,8.61-2.4,13.84-5.78,13.84-5.78l.14,5.04Z" style="fill: #bababa;"/>
    <path d="M310.75,354.25s-2.48-3.59-5.41-5.06-2.76-4.36-1.39-10.44c1.37-6.07,1.85-15.52,.38-20.19s-1.3-7.56,2.26-2.96c3.56,4.6,5.44,6.11,10.47,7.52s11.24,6.97,11.24,6.97c0,0-3.13,8.23-3.05,10.84-2.89-8.29-5.87-11.07-5.87-11.07,0,0,3,11.43,2.8,13.27-.2,1.84-4.58-11.64-7.53-13.9,3.19,9.33,4.05,19.52,4.05,19.52,0,0-8.71-9.67-9.11-14.11,1.34,8.87,5.01,16.87,5.01,16.87,0,0-4.79-2.2-5.12-4.29,1.14,2.84,3.66,7.74,3.66,7.74l-2.38-.71Z" style="fill: #bababa;"/>
    <path d="M371.08,340.2s-1.88-4.11-2.86-7.24,.97-4.83,6.28-8.07c5.32-3.24,12.8-1.21,19.51-10.05,2.96-3.9,6.38-4.25,3.62,.87-2.76,5.12-.52,7.54,.62,14.16,1.3,7.56-.39,12.07-.39,12.07,0,0-7.72,2.89-9.54,4.77,3.94-7.85,4.79-14.19,4.79-14.19,0,0-6.13,10.11-7.59,11.24s5.18-11.39,4.75-15.08c-4.48,8.78-11.21,16.49-11.21,16.49,0,0-.55-13.45,2.36-16.84-5.44,7.13-7.19,15.81-7.19,15.81,0,0-1.06-11.53,.2-13.22-3.3,3.25-2.18,13.44-2.18,13.44l-1.19-4.15Z" style="fill: #bababa;"/>
    <path d="M423.48,375.3s.54-3.99,1.29-6.82c.75-2.82,3.02-3.18,8.57-3.09,5.54,.09,13.69,1.54,17.5-.59s6.35-2.51,2.99,1.43-4.61,5.75-5.63,11.64c-.79,4.58-5.35,11.46-5.35,11.46,0,0-7.19-1.49-9.45-.94,6.7-4.04,10.35-8.41,10.35-8.41,0,0-9.42,4.7-11.06,4.86s9.31-6.12,10.74-9.11c-7.55,4.49-16.27,7.1-16.27,7.1,0,0,5.98-10.4,9.78-11.56-7.48,2.79-12.93,8.49-12.93,8.49,0,0,4.67-9.19,6.43-9.86-4.03,.88-8.02,9.09-8.02,9.09l1.08-3.69Z" style="fill: #bababa;"/>
    <path d="M442.45,433.47s2.87-2.82,5.2-4.59c2.33-1.77,4.34-.66,8.66,2.81,4.33,3.47,9.87,9.62,14.18,10.27,4.31,.65,6.56,1.91,1.48,2.96-5.07,1.05-7.17,1.71-11.59,5.74-3.43,3.13-11.26,5.76-11.26,5.76,0,0-4.76-5.59-6.89-6.54,7.77,.92,13.33-.29,13.33-.29,0,0-10.32-2.06-11.72-2.94s11.11,.88,14.07-.6c-8.71-1.09-17.21-4.38-17.21-4.38,0,0,11.1-4.54,14.81-3.13-7.62-2.39-15.42-1.23-15.42-1.23,0,0,9.33-4.39,11.13-3.84-3.73-1.77-11.91,2.26-11.91,2.26l3.12-2.25Z" style="fill: #bababa;"/>
    <path d="M405.38,503.73s.09,4.03,.52,6.92c.43,2.89,2.65,3.5,8.17,4.03,5.52,.53,13.78,0,17.32,2.54,3.54,2.54,6.03,3.21,3.13-1.09-2.9-4.29-3.94-6.23-4.29-12.2-.27-4.64-4.04-11.99-4.04-11.99,0,0-7.31,.68-9.5-.13,6.2,4.76,9.34,9.52,9.34,9.52,0,0-8.83-5.73-10.44-6.07s8.57,7.12,9.66,10.25c-7-5.3-15.38-8.87-15.38-8.87,0,0,4.78,11,8.42,12.58-7.12-3.61-11.9-9.88-11.9-9.88,0,0,3.62,9.66,5.29,10.52-3.91-1.33-6.96-9.93-6.96-9.93l.66,3.79Z" style="fill: #bababa;"/>
    <path d="M344.24,526.45s-2.69,2.99-4.36,5.4-.46,4.36,3.19,8.53,10.05,9.43,10.89,13.71,2.2,6.46,3.03,1.35,1.39-7.24,5.22-11.83c2.98-3.57,5.26-11.5,5.26-11.5,0,0-5.79-4.51-6.84-6.59,1.26,7.72,.3,13.33,.3,13.33,0,0-2.52-10.22-3.46-11.57-.94-1.35,1.37,11.06,.02,14.08-1.47-8.66-5.14-17-5.14-17,0,0-4.04,11.29-2.47,14.94-2.72-7.51-1.91-15.35-1.91-15.35,0,0-3.97,9.52-3.34,11.29-1.94-3.64,1.73-12,1.73-12l-2.11,3.21Z" style="fill: #bababa;"/>
    <path d="M286.3,503.89s-4,.48-6.83,1.18c-2.84,.71-3.23,2.98-3.22,8.52,0,5.54,1.33,13.72-.85,17.48-2.19,3.77-2.61,6.31,1.39,3.01s5.82-4.53,11.72-5.45c4.59-.72,11.54-5.18,11.54-5.18,0,0-1.38-7.21-.79-9.46-4.14,6.64-8.57,10.22-8.57,10.22,0,0,4.84-9.34,5.03-10.98,.19-1.64-6.26,9.22-9.27,10.6,4.6-7.48,7.34-16.17,7.34-16.17,0,0-10.48,5.82-11.71,9.6,2.9-7.44,8.69-12.8,8.69-12.8,0,0-9.26,4.54-9.96,6.28,.94-4.02,9.21-7.88,9.21-7.88l-3.71,1.02Z" style="fill: #bababa;"/>
    <path d="M251.97,448.91s-3.61-1.79-6.37-2.74c-2.76-.96-4.33,.73-7.35,5.37-3.03,4.64-6.38,12.22-10.27,14.18s-5.63,3.86-.49,3.28c5.15-.58,7.34-.61,12.8,1.84,4.24,1.91,12.5,1.97,12.5,1.97,0,0,2.78-6.79,4.51-8.36-7.09,3.3-12.76,3.88-12.76,3.88,0,0,9.16-5.18,10.21-6.45s-10.28,4.3-13.56,3.81c7.94-3.75,14.98-9.53,14.98-9.53,0,0-11.96-.85-15.05,1.64,6.5-4.64,14.27-5.97,14.27-5.97,0,0-10.23-1.26-11.77-.18,2.99-2.85,12.02-1.57,12.02-1.57l-3.67-1.17Z" style="fill: #bababa;"/>
    <path d="M267.23,383.03s-1.43-3.76-2.8-6.34c-1.37-2.58-3.67-2.41-9.05-1.06s-12.98,4.61-17.17,3.41-6.75-1-2.59,2.07c4.17,3.08,5.8,4.55,8.13,10.05,1.81,4.28,7.82,9.94,7.82,9.94,0,0,6.66-3.09,8.99-3.06-7.44-2.41-11.99-5.84-11.99-5.84,0,0,10.24,2.44,11.87,2.22s-10.46-3.84-12.53-6.43c8.37,2.65,17.46,3.21,17.46,3.21,0,0-8.19-8.76-12.15-9.04,7.92,1.01,14.52,5.33,14.52,5.33,0,0-6.64-7.89-8.51-8.14,4.13-.06,9.88,7.03,9.88,7.03l-1.89-3.35Z" style="fill: #bababa;"/>
    <path d="M286.31,387.01c-1.37-.88-3.14-2.09-5.38-3.77,2.42,1.67,5.78,2.21,8.68,2.31,1.73-.42,3.5-.77,4.78-1.01-2.74-1.44-9.18-5.31-13.11-11.52,6.88,5.22,12.11,6.84,14.89,7.34,.17-.41,.43-.81,.8-1.17-3.75-3.67-13.72-13.8-16.48-20.23,11.28,12.53,19.21,18.2,19.21,18.2,0,0-4.22-9.04-10.64-17.58,7.77,6.24,13.82,14.8,13.82,14.8,0,0-.1-5-3.5-12.6,3.47,3.4,5.47,6.4,6.62,8.71,.25-.21,.51-.39,.81-.53l2.97-1.41s.12-2.57,2.1-4c-3.41-15.13-22.72-18.03-32.34-19.08-11.2-1.22-28.08-11.02-28.08-11.02,0,0,6.02,7.76,10.77,16.64,5.39,10.08,.32,12.22,7.1,27.05,4.42,9.67,10.65,13.39,14.46,14.8,.13-2.69,1.06-4.7,2.53-5.95Z" style="fill: #bababa;"/>
    <path d="M463.39,189.82s8.04-11.45,.71-26c-7.34-14.56-12.18-11.94-16.68-22.45-3.96-9.26-6.25-18.81-6.25-18.81,0,0-2.9,19.3-8.95,28.81-6.05,9.5-17.28,30.04-1.61,43.36,4.54-3.39,7.46-2.76,7.46-2.76,0,0-4.39-3.7-5.52-14.92,3.81,7.4,7.65,10.61,7.65,10.61,0,0-2.9-10.07-2.91-20.04,2.65,10.35,7.06,19.29,7.06,19.29,0,0,.53-9.73-2.2-26.37,4.08,7.65,5.67,27.5,5.67,27.5,0,0,4.46-4.96,4.8-18.09,3.11,9.01,.48,18.86,.48,18.86,0,0,7.26-6.42,7.71-12.74-.31,8.93-2.35,14.81-2.35,14.81l4.93-1.05Z" style="fill: #bababa;"/>
    <path d="M419.58,201.58s.36-13.98-13.81-22.04c-14.17-8.06-16.75-3.2-26.32-9.46-8.43-5.52-15.62-12.2-15.62-12.2,0,0,8.27,17.68,8.5,28.94,.23,11.26,2.25,34.58,22.67,37,1.9-5.34,4.68-6.43,4.68-6.43,0,0-5.71-.65-12.86-9.36,7.27,4.06,12.24,4.6,12.24,4.6,0,0-7.99-6.78-13.52-15.08,7.94,7.15,16.57,12.15,16.57,12.15,0,0-4.95-8.4-16.43-20.74,7.63,4.11,19.95,19.76,19.95,19.76,0,0,.96-6.6-6.02-17.72,7.58,5.79,10.85,15.43,10.85,15.43,0,0,2.49-9.37-.63-14.88,4.69,7.61,6.24,13.64,6.24,13.64l3.52-3.6Z" style="fill: #bababa;"/>
    <path d="M390.8,232.62s-8.3-11.26-24.43-8.93c-16.13,2.33-15.19,7.76-26.58,8.68-10.04,.81-19.82-.05-19.82-.05,0,0,17.38,8.88,24.47,17.64,7.09,8.75,22.99,25.92,40.6,15.3-1.77-5.38-.25-7.95-.25-7.95,0,0-4.9,2.99-15.9,.5,8.23-1.26,12.49-3.88,12.49-3.88,0,0-10.47-.45-19.93-3.61,10.66,.77,20.54-.57,20.54-.57,0,0-9.06-3.59-25.71-6.29,8.55-1.44,27.87,3.36,27.87,3.36,0,0-3.29-5.8-15.63-10.3,9.53-.08,18.04,5.53,18.04,5.53,0,0-3.78-8.93-9.63-11.36,8.37,3.13,13.3,6.94,13.3,6.94l.57-5.01Z" style="fill: #bababa;"/>
    <path d="M457.81,323.18s-7.35,11.9,.83,26c8.18,14.1,12.86,11.2,17.97,21.43,4.5,9.01,7.35,18.41,7.35,18.41,0,0,1.76-19.44,7.23-29.28,5.48-9.84,15.47-31.01-.95-43.38-4.33,3.65-7.28,3.2-7.28,3.2,0,0,4.61,3.43,6.39,14.56-4.24-7.16-8.26-10.14-8.26-10.14,0,0,3.49,9.88,4.09,19.83-3.26-10.17-8.19-18.84-8.19-18.84,0,0,.05,9.75,3.75,26.2-4.53-7.4-7.28-27.12-7.28-27.12,0,0-4.15,5.21-3.72,18.34-3.63-8.81-1.6-18.8-1.6-18.8,0,0-6.87,6.84-6.94,13.17-.22-8.94,1.47-14.93,1.47-14.93l-4.86,1.34Z" style="fill: #bababa;"/>
    <path d="M500.93,306.81s3.83,13.45,19.76,16.92c15.93,3.46,16.94-1.95,27.94,1.18,9.69,2.75,18.55,6.99,18.55,6.99,0,0-13.17-14.41-16.75-25.09-3.58-10.68-12.46-32.33-32.67-28.55-.22,5.66-2.55,7.53-2.55,7.53,0,0,5.64-1.09,15.06,5.1-8.15-1.7-13.06-.73-13.06-.73,0,0,9.65,4.09,17.4,10.36-9.71-4.45-19.44-6.66-19.44-6.66,0,0,7.23,6.54,21.87,14.9-8.51-1.65-24.93-12.91-24.93-12.91,0,0,1.05,6.58,11.03,15.12-8.96-3.26-14.96-11.5-14.96-11.5,0,0,.42,9.69,5.04,14.01-6.75-5.86-10.03-11.16-10.03-11.16l-2.29,4.49Z" style="fill: #bababa;"/>
    <path d="M516.16,262.57s9.9,9.88,25.5,5.14,13.84-9.96,24.97-12.59c9.81-2.32,19.6-2.94,19.6-2.94,0,0-18.52-6.16-26.85-13.74-8.33-7.58-26.64-22.16-42.45-9.01,2.56,5.05,1.44,7.82,1.44,7.82,0,0,4.4-3.7,15.64-2.89-7.94,2.48-11.76,5.72-11.76,5.72,0,0,10.42-1.13,20.24,.56-10.65,.84-20.22,3.66-20.22,3.66,0,0,9.5,2.18,26.36,2.34-8.24,2.71-28.06,.88-28.06,.88,0,0,4.12,5.24,17,7.83-9.41,1.52-18.66-2.75-18.66-2.75,0,0,5.08,8.25,11.23,9.78-8.75-1.83-14.19-4.85-14.19-4.85l.19,5.03Z" style="fill: #bababa;"/>
    <path d="M482.81,179.34s2.24-3.74,5.06-5.41c2.83-1.66,2.47-4.54,.7-10.5-1.77-5.97-2.86-15.37-1.71-20.12,1.15-4.75,.8-7.63-2.45-2.8s-5.03,6.45-9.95,8.19c-4.92,1.73-10.75,7.69-10.75,7.69,0,0,3.67,8,3.75,10.62,2.34-8.46,5.13-11.44,5.13-11.44,0,0-2.24,11.6-1.92,13.43,.32,1.82,3.8-11.92,6.6-14.37-2.57,9.52-2.76,19.74-2.76,19.74,0,0,8.05-10.22,8.17-14.68-.76,8.93-3.89,17.16-3.89,17.16,0,0,4.63-2.51,4.83-4.61-.95,2.91-3.15,7.96-3.15,7.96l2.33-.86Z" style="fill: #bababa;"/>
    <path d="M421.69,169.28s1.61-4.23,2.38-7.42c.77-3.19-1.28-4.76-6.8-7.64s-14.34-5.81-16.95-9.94c-2.61-4.14-4.92-5.88-3.72-.19,1.21,5.69,1.48,8.14-.67,14.5-1.67,4.94-.85,14.18-.85,14.18,0,0,7.89,2.37,9.83,4.13-4.45-7.57-5.71-13.84-5.71-13.84,0,0,6.78,9.68,8.31,10.72s-5.92-11.02-5.73-14.74c5.05,8.47,12.27,15.72,12.27,15.72,0,0-.34-13.46-3.46-16.65,5.89,6.76,8.22,15.3,8.22,15.3,0,0,.3-11.57-1.07-13.18,3.51,3.03,3.06,13.26,3.06,13.26l.91-4.22Z" style="fill: #bababa;"/>
    <path d="M371.71,207.75s-.8-3.95-1.73-6.72c-.93-2.77-3.23-2.97-8.75-2.52-5.53,.45-13.56,2.44-17.5,.56-3.93-1.88-6.5-2.09-2.89,1.62,3.61,3.71,4.98,5.43,6.38,11.24,1.09,4.52,6.1,11.08,6.1,11.08,0,0,7.07-1.96,9.37-1.56-6.95-3.59-10.88-7.71-10.88-7.71,0,0,9.7,4.07,11.35,4.13s-9.69-5.49-11.32-8.38c7.83,3.98,16.71,6.01,16.71,6.01,0,0-6.65-9.98-10.51-10.9,7.65,2.29,13.46,7.62,13.46,7.62,0,0-5.27-8.86-7.07-9.42,4.08,.62,8.6,8.54,8.6,8.54l-1.32-3.61Z" style="fill: #bababa;"/>
    <path d="M357.38,267.37s-2.6-2.24-4.68-3.62c-2.08-1.38-3.73-.32-7.22,2.88s-7.86,8.74-11.49,9.53c-3.63,.8-5.47,1.99-1.1,2.61s6.2,1.05,10.18,4.23c3.1,2.47,9.91,4.27,9.91,4.27,0,0,3.74-5.02,5.5-5.95-6.56,1.22-11.36,.5-11.36,.5,0,0,8.67-2.33,9.81-3.16s-9.4,1.37-12.01,.28c7.35-1.41,14.4-4.69,14.4-4.69,0,0-9.7-3.24-12.78-1.84,6.35-2.46,13.05-1.91,13.05-1.91,0,0-8.19-3.21-9.69-2.64,3.07-1.72,10.26,1.25,10.26,1.25l-2.78-1.74Z" style="fill: #bababa;"/>
    <path d="M516.94,326.97s3.95,.75,6.73,1.66,3.01,3.19,2.62,8.72c-.39,5.53-2.29,13.59-.38,17.5,1.92,3.91,2.16,6.48-1.59,2.91s-5.48-4.92-11.31-6.26c-4.53-1.04-11.15-5.98-11.15-5.98,0,0,1.88-7.09,1.46-9.39,3.66,6.91,7.83,10.8,7.83,10.8,0,0-4.18-9.66-4.25-11.31-.07-1.65,5.6,9.63,8.5,11.23-4.06-7.78-6.19-16.64-6.19-16.64,0,0,10.05,6.54,11.01,10.4-2.37-7.62-7.77-13.38-7.77-13.38,0,0,8.92,5.17,9.49,6.97-.66-4.07-8.63-8.51-8.63-8.51l3.63,1.28Z" style="fill: #bababa;"/>
    <path d="M547.68,269.92s3.48-2.02,6.18-3.16c2.69-1.14,4.37,.44,7.69,4.88,3.33,4.44,7.17,11.77,11.18,13.47,4.01,1.7,5.87,3.48,.7,3.24s-7.37-.13-12.65,2.68c-4.1,2.18-12.34,2.78-12.34,2.78,0,0-3.22-6.59-5.05-8.05,7.29,2.82,12.99,3.03,12.99,3.03,0,0-9.48-4.56-10.62-5.76s10.54,3.61,13.78,2.91c-8.17-3.22-15.58-8.52-15.58-8.52,0,0,11.88-1.64,15.13,.65-6.79-4.21-14.63-5.02-14.63-5.02,0,0,10.13-1.93,11.73-.95-3.17-2.65-12.1-.78-12.1-.78l3.58-1.41Z" style="fill: #bababa;"/>
    <path d="M528.13,205.19s1.18-3.85,2.38-6.51,3.5-2.64,8.96-1.66,13.26,3.75,17.36,2.27c4.1-1.48,6.67-1.44,2.72,1.9-3.96,3.34-5.49,4.92-7.45,10.57-1.53,4.39-7.15,10.43-7.15,10.43,0,0-6.85-2.64-9.17-2.46,7.27-2.89,11.58-6.61,11.58-6.61,0,0-10.06,3.11-11.7,3s10.18-4.52,12.08-7.24c-8.18,3.2-17.21,4.35-17.21,4.35,0,0,7.59-9.28,11.53-9.82-7.84,1.53-14.14,6.27-14.14,6.27,0,0,6.11-8.31,7.95-8.68-4.12,.22-9.4,7.66-9.4,7.66l1.67-3.47Z" style="fill: #bababa;"/>
    <path d="M509.34,210.41c1.31-.97,2.99-2.29,5.12-4.11-2.31,1.83-5.62,2.58-8.51,2.87-1.76-.3-3.54-.54-4.84-.69,2.64-1.62,8.81-5.9,12.32-12.36-6.52,5.66-11.63,7.62-14.37,8.31-.2-.4-.48-.78-.87-1.11,3.5-3.91,12.78-14.67,15.12-21.27-10.43,13.25-17.97,19.43-17.97,19.43,0,0,3.62-9.29,9.46-18.24-7.35,6.74-12.82,15.68-12.82,15.68,0,0-.23-5,2.66-12.8-3.24,3.62-5.03,6.74-6.03,9.13-.26-.2-.54-.36-.84-.48l-3.05-1.21s-.28-2.56-2.35-3.85c2.41-15.32,21.48-19.49,31.01-21.17,11.09-1.95,27.29-12.85,27.29-12.85,0,0-5.5,8.14-9.66,17.31-4.72,10.41,.48,12.22-5.3,27.46-3.77,9.94-9.75,14.06-13.45,15.72-.3-2.68-1.36-4.62-2.91-5.77Z" style="fill: #bababa;"/>
    <path d="M393.29,306.22s0,.03,0,.08c.02-.06,0-.08,0-.08Z" style="fill: #bababa;"/>
    <path d="M362.67,318.44c4.16,1.18,5.07,.34,10.07,.74,2.1-.55,8.9-.88,10.95-1.67,5.17-2.01,8.25-6.49,10.96-8.05-1.13-1.66-1.33-2.86-1.36-3.17-.1,.25-1.18,1.2-9.77,4.31,6.24-5.51,8.41-10.02,8.41-10.02,0,0-9.05,5.28-18.71,7.74,9.38-5.11,16.97-11.58,16.97-11.58,0,0-9.56,1.88-25.03,8.6,6.42-5.83,25.27-12.24,25.27-12.24,0,0-5.9-3.1-18.72-.22,7.98-5.22,18.16-5.1,18.16-5.1,0,0-8.01-5.47-14.24-4.35,8.74-1.89,14.94-1.35,14.94-1.35l-2.23-4.52s-13.07-4.99-25.38,5.69c-4.73,4.1-7.09,7.23-8.72,9.91-.02,12.47,5.8,22.23,8.44,25.26Z" style="fill: #bababa;"/>
    <path d="M431.93,328.76s.01,10.48-2.73,20.07c.12-4.29-.09-8.44-.39-11.87-1.75,5.37-3.03,10.46-2,16.61l1.31,7.82,6.04,.17c8.46-8.56,18.49-22.58,8.94-36.94-5.3,2.01-7.93,.6-7.93,.6,0,0,3.2,4.77,1.2,15.86-1.62-8.16-4.43-12.3-4.43-12.3Z" style="fill: #bababa;"/>
    <path d="M416.68,331.4c1.38-4.34,3.15-7.3,3.15-7.3,0,0-8.75,4.17-10.92,10.12,2.76-8.5,6.35-13.59,6.35-13.59l-5.03-.35s-8.53,6.9-8.37,19.6c5.29-2.25,10.6-5.54,14.83-8.49Z" style="fill: #bababa;"/>
  </g>
  <g id="svg-6"/>
  <g id="svg-7">
    <path d="M302.24,414.81c.88-1.76,1.89-3.52,2.77-5.29,.29-.59,.6-1.12,.92-1.7,.03-.05,.12-.25,.17-.26,.05-.01,.29,.21,.34,.23,.72,.29,1.05,.51,1.78,.79,.53,.21,1.35,.79,1.86,1.04,1.35,.65,2.44,1.12,3.65,2-.23,.68-.57,1.11-.87,1.72-.09,.19-.25,.47-.38,.63-1.8-1.05-3.07-1.76-4.98-2.59-.08-.03-.56-.35-.65-.33-.08,.03-.16,.26-.2,.34-.37,.88-.73,1.42-1.13,2.21,1.87,.97,3.71,1.95,5.51,3.04-.21,.44-.99,2.05-1.19,2.46-.34-.02-.94-.7-1.24-.87-.4-.23-2.41-1-2.81-1.23-1.65-.92-1.86-1.38-3.56-2.2Z" style="fill: #bababa;"/>
    <path d="M317.46,402.85c-.65-.26-1.25-.62-1.87-.95-1.13-.62-2.29-1.15-3.49-1.61-.1-.04-.2-.07-.3-.06-.15,.02-.27,.15-.36,.27-.55,.66-1.25,1.58-1.8,2.25,1.01,1.78,2.07,3.25,2.99,5.08,.23,.46,.52,1,.75,1.46,.13,.26,.29,1.2,.55,1.34,.64-.61,1.48-1.51,1.81-1.81,.05-.05,.07-.12,.07-.19,0-.1-.04-.2-.09-.28l-.62-1.09c-.04-.08-.03-.09-.02-.19,0-.08,.22-.16,.27-.23,.41-.47,.73-.79,1.18-1.28,.06-.06,.14-.09,.23-.1,.11-.02,.21,.03,.31,.07,.45,.2,.88,.44,1.29,.71,.58-.74,1.19-1.46,1.84-2.14-.74-.69-1.8-.87-2.74-1.25Zm-2.23,1.66c-.35,.36-.96,.93-1.25,1.24-.57-.39-1.11-1.93-1.5-2.49-.13-.19-.27-.36-.36-.57,1.1,.55,2.18,1.15,3.23,1.79-.03-.03-.08,0-.12,.03Z" style="fill: #bababa;"/>
    <path d="M319.6,401.7c.37-.1,.61-.4,.69-.77s-.13-.85-.29-1.19c-.86-1.88-1.68-3.13-2.74-4.67,1.16-.87,1.64-1.45,2.79-2.2,.13-.08,.43-.37,.56-.46,.52-.34,.94-.83,1.46-1.17,1.81,1.94,3.85,4.52,5.41,6.67-.64,.53-1.33,1.19-2,1.68-.68-.67-1.37-1.72-1.97-2.46-.79-.97-1.45-1.76-2.19-2.58-.23,.33-.63,.53-.99,.82,.32,.59,1.03,1.69,1.46,2.44,.36,.64,.59,1.17,.77,1.66,.27,.73,.44,1.49,.13,2.11-.27,.55-1.07,1.4-1.7,1.63-.33,.12-.28-.14-.54-.38-.09-.08-.84-1.13-.86-1.12Z" style="fill: #bababa;"/>
    <path d="M330.63,386.95c-.08-.09-.21-.16-.27-.26-.87,.37-1.41,.65-2.25,1.12-.17,.1-.41,.21-.65,.35,.56,2.33,.7,4.89,.97,7.27,.04,.33,.21,1.29,.22,1.84,.41-.22,2.22-1.11,2.6-1.31-.03-.63-.21-.97-.27-1.59,.41-.27,.83-.43,1.25-.7,.16-.11,.65-.39,.84-.42,.29-.05,.27,.14,.49,.35,.21,.2,.52,.57,.66,.83,.18-.02,.48-.17,.68-.28,.63-.37,1.27-.55,1.93-.99-1.89-2.29-4.23-3.94-6.2-6.19Zm-.24,5.52c-.24-.85-.64-2.84-.76-3.3,.14,.05,.49,.49,.62,.67,.58,.79,.92,1.22,1.53,1.95-.46,.18-.91,.5-1.39,.67Z" style="fill: #bababa;"/>
    <path d="M338.09,392.66c.65-.32,1.34-.56,2.05-.71,.48-1.97,1.62-3.75,1.92-5.75,.54,1.46,.86,3.1,1.4,4.57,.61-.16,1.67-.58,2.28-.74-1.02-3.11-1.86-5.63-2.88-8.31-.27,.09-.52,.13-.72,.24s-.41,.17-.61,.23c-.17,.05-.56,.22-.71,.31-.09,.26-.15,.55-.22,.76-.59,1.75-.98,2.97-1.57,4.73-.49-1.5-.66-2.87-1.16-4.38-.63,.03-2.05,.53-2.58,.71,.19,.54,.57,1.75,.78,2.35,.18,.51,2.18,5.91,2.01,6Z" style="fill: #bababa;"/>
    <path d="M337.6,382.61c.5,.09,1.01-.11,1.48-.32,.46-.21,.92-.46,1.21-.87,.39-.54,.4-1.26,.39-1.92-.42,.15-.86,.26-1.31,.33,.09,.36,.02,.52-.09,.68-.16,.24-.28,.33-.54,.45-.45,.19-.98-.11-1.26-.5,.03,.04-1.02,.41-1.1,.44-.35,.14-.45,.15-.3,.51,.23,.54,.95,1.11,1.51,1.21Z" style="fill: #bababa;"/>
    <path d="M300.24,427.9s-5.09,.37-7.34-4.3c-2.26-4.67,2.57-8.7,2.57-8.7,0,0-5-2.02-3.86-7.6s4.91-6.42,4.91-6.42c0,0-3.46-1.71-3.41-4.9,.05-3.2,3.68-5.26,6.64-4.06,2.96,1.2,3.34,3.29,3.34,3.29,0,0-.64-4.74,3.53-6.5,4.17-1.76,6.58,1.14,6.58,1.14,0,0-4.75-3.57-2.04-8.03s6.78-2.43,6.78-2.43c0,0-2.03-2.82-.6-4.93,1.43-2.11,4.86-2.22,6.12,.45,1.26,2.66,.3,3.47,.3,3.47,0,0,1.4-2.92,4.05-2.18,2.66,.74,2.3,3.48,2.3,3.48,0,0,1.4-4.93,5.14-4.57,3.74,.36,4.66,1.75,4.66,1.75,0,0,.75-4.66,4.79-3.84,4.04,.82,2.76,4.17,2.76,4.17,0,0,1.12-1.58,3.16-.76,2.04,.82,1.57,3.13,1.57,3.13,0,0,2.23-4.07-.91-5.69-1.6-.82-2.95,.47-2.95,.47,0,0-.97-5.28-5.83-3.77-3.9,1.21-3.28,4.74-3.28,4.74,0,0-3.5-4.25-7.41-1.67-2.69,1.78-1.8,2.6-1.8,2.6,0,0-.84-2.78-2.92-2.4s-1.93,1.61-1.93,1.61c0,0-.33-4.28-5.49-4.53-5.16-.25-5.03,4.99-5.03,4.99,0,0-5.59-.31-6.72,4.36-.96,3.99,1.72,6.45,1.72,6.45,0,0-3.33-2.13-5.9,.09-2.47,2.14-1.86,4.54-1.86,4.54,0,0-4.53-4.24-8.12-1.05-4.7,4.18-.89,8.84-.89,8.84,0,0-4.44,4.11-3.65,9.08s2.83,5.79,2.83,5.79c0,0-5.29,4.33-2.54,9.51,2.76,5.17,10.73,4.39,10.73,4.39Z" style="fill: #bababa;"/>
    <path d="M340.75,477.36s.73,3.29-3.36,4.77-7.35-3.7-7.35-3.7c0,0-2.95,4.99-7.71,1.11-4.75-3.88-2.93-7.5-2.93-7.5,0,0-.74,2.1-3.68,1.7s-2.91-3.15-2.91-3.15c0,0-4.95,5.76-9.5,.53-4.55-5.22,.91-9.25,.91-9.25,0,0-3.89-1.57-1.13-6.93,.41,3.38,3.8,6.13,3.8,6.13,0,0-3.13,2.39-.77,6.56,2.36,4.17,7.64,.96,7.64,.96,0,0,1.26,2.79,4.67,1.6,3.41-1.19,3.12-2.13,3.12-2.13,0,0-1.48,5.91,3.64,7.89,5.12,1.97,6.28-.43,6.28-.43,0,0,1.23,3.82,4.65,3.82,3.42,0,4.62-1.98,4.62-1.98Z" style="fill: #bababa;"/>
    <path d="M404.35,302.08s-2.68,2.04-.51,5.81c2.16,3.77,8,1.92,8,1.92,0,0-.97,5.72,5.17,5.82,6.13,.11,7.08-3.83,7.08-3.83,0,0-.79,2.08,1.71,3.68,2.51,1.59,4.25-.52,4.25-.52,0,0,.06,7.59,6.91,6.55,6.85-1.04,5.28-7.65,5.28-7.65,0,0,3.99,1.31,5.34-4.56-2.5,2.31-6.86,2.22-6.86,2.22,0,0,.85,3.85-3.65,5.51-4.49,1.66-6.45-4.2-6.45-4.2,0,0-2.76,1.31-4.59-1.8-1.83-3.11-1.01-3.65-1.01-3.65,0,0-2.69,5.47-7.88,3.67-5.18-1.8-4.52-4.39-4.52-4.39,0,0-3.41,2.12-6.02-.09s-2.25-4.5-2.25-4.5Z" style="fill: #bababa;"/>
    <path d="M457.91,205.26c1.75,.4,3.53,.92,5.29,1.33,.58,.13,1.12,.29,1.71,.45,.05,.01,.25,.05,.27,.1,.02,.05-.12,.3-.13,.35-.1,.7-.22,1.04-.32,1.75-.07,.52-.41,1.36-.52,1.87-.28,1.34-.47,2.4-1,3.67-.66-.05-1.11-.27-1.71-.4-.19-.04-.47-.12-.64-.2,.55-1.82,.91-3.1,1.23-4.97,.01-.08,.19-.58,.15-.64-.04-.07-.27-.09-.35-.1-.86-.14-1.42-.34-2.21-.53-.46,1.87-.94,3.71-1.52,5.54-.44-.1-2.04-.44-2.43-.53-.05-.31,.42-.98,.51-1.28,.12-.4,.37-2.36,.49-2.76,.46-1.66,.83-1.94,1.19-3.63Z" style="fill: #bababa;"/>
    <path d="M471.78,216.22c.09-.63,.28-1.25,.45-1.86,.31-1.13,.53-2.28,.68-3.44,.01-.09,.02-.19-.01-.28-.05-.13-.19-.2-.32-.27-.71-.34-1.67-.77-2.38-1.11-1.37,1.27-2.45,2.53-3.87,3.74-.36,.3-.78,.68-1.14,.98-.21,.17-1,.51-1.07,.77,.68,.43,1.66,.99,2,1.22,.05,.03,.12,.03,.18,.02,.09-.01,.16-.08,.23-.14l.84-.79c.06-.06,.08-.05,.16-.06,.08,0,.19,.16,.26,.19,.5,.26,.86,.48,1.39,.77,.07,.04,.11,.11,.14,.18,.04,.09,.02,.2,0,.29-.08,.44-.2,.88-.35,1.3,.78,.35,1.55,.75,2.29,1.18,.46-.8,.39-1.79,.52-2.7Zm-1.95-1.62c-.39-.23-1.03-.65-1.37-.84,.22-.59,1.47-1.4,1.89-1.86,.14-.15,.26-.32,.43-.45-.25,1.09-.55,2.18-.9,3.25,.02-.04-.02-.07-.06-.1Z" style="fill: #bababa;"/>
    <path d="M473.26,217.87c.17,.3,.49,.45,.83,.45s.73-.29,1-.51c1.49-1.17,2.41-2.16,3.56-3.44,1.02,.84,1.64,1.15,2.55,2,.1,.1,.42,.3,.53,.4,.41,.39,.94,.65,1.35,1.04-1.34,2.02-3.19,4.38-4.76,6.23-.61-.45-1.34-.92-1.92-1.41,.45-.75,1.24-1.58,1.76-2.28,.69-.91,1.25-1.66,1.82-2.5-.35-.14-.61-.45-.94-.7-.45,.41-1.28,1.28-1.85,1.82-.49,.46-.91,.78-1.31,1.04-.59,.39-1.23,.71-1.84,.57-.54-.12-1.48-.65-1.81-1.16-.18-.27,.06-.27,.22-.56,.05-.1,.82-.99,.81-1Z" style="fill: #bababa;"/>
    <path d="M488.72,224.51c.06-.09,.1-.22,.17-.3-.51-.69-.88-1.11-1.48-1.76-.12-.13-.28-.32-.45-.5-1.95,.99-4.19,1.66-6.24,2.42-.29,.11-1.1,.46-1.58,.59,.28,.32,1.46,1.74,1.72,2.03,.55-.16,.82-.39,1.36-.58,.33,.31,.56,.65,.88,.96,.13,.12,.48,.49,.55,.66,.11,.25-.07,.27-.2,.51-.14,.23-.39,.58-.59,.77,.06,.15,.25,.39,.4,.54,.47,.48,.76,1.01,1.29,1.5,1.63-2.17,2.59-4.6,4.17-6.83Zm-4.95,.97c.71-.39,2.38-1.18,2.77-1.38-.02,.14-.33,.54-.46,.7-.58,.68-.88,1.07-1.41,1.78-.26-.37-.64-.71-.9-1.09Z" style="fill: #bababa;"/>
    <path d="M485.25,232.35c.43,.51,.79,1.07,1.07,1.67,1.85,0,3.68,.63,5.52,.48-1.18,.79-2.57,1.43-3.75,2.22,.27,.51,.87,1.36,1.15,1.86,2.55-1.57,4.6-2.85,6.76-4.34-.14-.22-.23-.43-.37-.59s-.23-.33-.33-.49c-.08-.14-.32-.45-.43-.56-.25-.03-.52-.01-.73-.03-1.68-.15-2.85-.24-4.53-.38,1.23-.76,2.41-1.21,3.64-1.96-.16-.56-.91-1.71-1.18-2.14-.44,.28-1.43,.88-1.92,1.2-.42,.27-4.78,3.21-4.9,3.07Z" style="fill: #bababa;"/>
    <path d="M494.07,229.77c.03,.47,.31,.88,.6,1.24,.28,.36,.6,.72,1.03,.89,.56,.23,1.2,.08,1.79-.06-.22-.35-.41-.71-.57-1.09-.3,.15-.45,.13-.62,.07-.25-.09-.35-.18-.51-.39-.27-.36-.12-.89,.18-1.23-.03,.03-.58-.81-.63-.88-.2-.28-.23-.37-.52-.15-.43,.32-.78,1.08-.75,1.6Z" style="fill: #bababa;"/>
    <path d="M497.56,251.64s5.07,.53,7.47-4.07-2.3-8.77-2.3-8.77c0,0,5.06-1.86,4.1-7.48-.96-5.61-4.71-6.57-4.71-6.57,0,0,3.51-1.6,3.56-4.8s-3.51-5.38-6.51-4.27c-3,1.11-3.44,3.18-3.44,3.18,0,0,.79-4.72-3.32-6.61s-6.62,.93-6.62,.93c0,0,4.86-3.42,2.29-7.97-2.57-4.54-6.7-2.64-6.7-2.64,0,0,2.12-2.75,.75-4.91s-4.79-2.37-6.13,.25-.4,3.46-.4,3.46c0,0-1.31-2.97-3.98-2.31-2.68,.66-2.41,3.4-2.41,3.4,0,0-1.25-4.97-4.99-4.72s-4.71,1.6-4.71,1.6c0,0-.6-4.68-4.67-3.98s-2.89,4.08-2.89,4.08c0,0-1.07-1.61-3.14-.86s-1.67,3.08-1.67,3.08c0,0-2.1-4.13,1.09-5.66,1.62-.77,2.93,.56,2.93,.56,0,0,1.14-5.24,5.94-3.59,3.86,1.33,3.13,4.84,3.13,4.84,0,0,3.63-4.14,7.46-1.43,2.63,1.86,1.72,2.65,1.72,2.65,0,0,.92-2.75,2.99-2.31s1.88,1.67,1.88,1.67c0,0,.47-4.26,5.63-4.35s4.87,5.15,4.87,5.15c0,0,5.6-.14,6.58,4.56,.84,4.02-1.92,6.4-1.92,6.4,0,0,3.4-2.02,5.89,.28s1.72,4.6,1.72,4.6c0,0,4.66-4.1,8.15-.8,4.57,4.32,.61,8.86,.61,8.86,0,0,4.31,4.24,3.37,9.19-.95,4.95-3.01,5.7-3.01,5.7,0,0,5.15,4.5,2.24,9.58-2.92,5.08-10.86,4.05-10.86,4.05Z" style="fill: #bababa;"/>
    <path d="M491.74,283.45c1.18-3.78,5.88-4,5.88-4,0,0,2.35-5.79,6.85-2.9,4.5,2.89,2.72,6.42,2.72,6.42,0,0,5.47,3.99-.18,12.69-5.66,8.7-14.17,1.7-14.17,1.7,0,0,.02,7.81-7.19,9.85-7.21,2.04-10.72-3.28-10.72-3.28,0,0-2.16,4.44-6.31,4.18-4.15-.26-6.08-4.24-6.08-4.24,0,0-2.41,6.82-7.6,6.49-5.19-.33-5.88-7.35-5.88-7.35,0,0-.26,4.15-5.57,4.12s-4.86-3.75-4.86-3.75c0,0-3.38,5.72-7.15,2.77s-2.66-5.69-2.66-5.69c0,0,1.83,3.93,5.01,3.69s4.84-3.48,4.84-3.48c0,0,1.73,3.89,4.66,3.66s5.23-4.74,5.23-4.74c0,0,2.98,6.65,7.23,6.36s5.52-5.45,5.52-5.45c0,0,2.54,4.81,6.69,3.9,4.15-.92,5.24-5.92,5.24-5.92,0,0,4.42,8.06,10.57,5.11s5.15-10.09,5.15-10.09c0,0,10.47,6.25,13.36,1.16,2.89-5.09-.39-8.67-.39-8.67,0,0,2.8-3.71-.73-4.91-3.53-1.2-4.18,1.85-4.18,1.85,0,0-.86-2.83-5.27,.46Z" style="fill: #bababa;"/>
    <path d="M401.2,423.47c-.44-3.4-3.36-5.92-6.79-5.88,0,0,2.11-1.86,1.24-6.13-.87-4.27-3.58-4.04-3.58-4.04,1.25-.76,1.66-2.39,.9-3.64h0c-.12-.19-.26-.36-.42-.52-2.18-2.29-4.76-.02-4.76-.02,.28-2.19-.83-4.33-2.79-5.35-3.32-1.74-6.69,1.59-6.69,1.59,0,0,1.48-3.42-2.51-6.75-2.06-1.95-5.14-2.36-7.64-1,0,0,1.84-1.9-.59-5.04-2.43-3.15-5.85-.64-5.85-.64-1.27-1.08-3.01-1.43-4.6-.92-2.9,.73-2.55,4.8-2.55,4.8,0,0-1.16-.23-3.01,1.79-1.85,2.02-.2,4.87-.2,4.87,0,0-3.36-3.73-7.1-1.68-2.18,1.32-3.24,3.91-2.61,6.38,0,0-2.44-1.69-6.38,.71-2.25,1.33-3.37,3.97-2.76,6.51,0,0-5.57-3.38-10.12,.76-2.63,2.18-3.38,5.9-1.8,8.93-1.66,.11-3.07,1.27-3.49,2.88-.21,1.71,.59,3.38,2.06,4.28-1.73-.93-3.87-.62-5.27,.76-1.15,1.33-1.52,3.17-.97,4.85,0,0-.51-1.43-2.99-1.69-1.16-.11-2.29,.4-2.98,1.33-1.16-1.36-3.14-1.68-4.66-.73-2.76,1.58-1.11,5.49-1.11,5.49-1.63-.48-3.37,.3-4.09,1.83-1.61,2.73,1.89,4.49,1.89,4.49,0,0-1.69,2.46-.85,3.98,.84,1.52,2.59,.38,2.59,.38,0,0-2.03,4.1-.17,5.41,.95,.67,2.26,.45,2.94-.49h0c.06-.06,.11-.14,.14-.22,.11,1.33,1.08,2.43,2.38,2.73,1.28,.3,2.61-.23,3.35-1.32-.21,.4-.44,1.28,.64,2.64,.82,1.08,2.34,1.33,3.47,.57-.75,1.14-.83,2.6-.22,3.82,1.09,1.81,3.91,.86,3.91,.86-.66,1.36-.34,3,.79,4.01,1.97,1.47,4.31-.33,4.31-.33,.16,2.31,1.5,4.37,3.54,5.45,2.07,.9,4.48,.37,5.98-1.32,0,0-.3,2.2,4.66,3.98,2.59,1.25,5.71,.54,7.5-1.71,0,0-.54,4.02,5.2,6.51,3.44,1.42,7.39,.76,10.18-1.7,1.35,2.14,3.91,3.19,6.38,2.62,2.73-.42,5-2.31,5.9-4.92,0,0,1.06,2.06,4.45,1.69,2.97-.35,3.45-3.48,3.53-4.28,0,.49,.2,1.86,2.44,2.95,2.78,1.36,3.27-.4,3.27-.4,0,0,1.16,4.75,3.69,4.73,2.54-.02,3.3-3.86,3.3-3.86,0,0,.63,2.78,5.05,1.29,4.42-1.5,1.77-4.97,1.77-4.97,1.22-1.1,1.32-2.99,.22-4.21l-.15-.16c-2.07-2.31-4.52,.09-4.83,.32,.86-.87,1.3-2.09,1.18-3.31-.32-1.91-3.61-2.42-3.61-2.42,0,0,2.06,.29,3.86-2.69,.99-1.75,.59-3.95-.95-5.24,0,0,1.49,.57,3.15-3.75,.96-2.48,.1-5.29-2.09-6.8,2.31-.2,4.24-1.84,4.8-4.08,1.06-3.9-2.85-6.28-2.85-6.28,0,0,4.38-1.64,3.34-7.69Zm-17.83-4.57c-.32,4.05-3.86,7.07-7.91,6.74h-.03c-.09-.24-.21-.46-.37-.65,2.5-.81,4.6-2.52,5.89-4.81-2.63,.53-4.99,1.94-6.72,3.98l-.49-.6c2.13-4.89,4.83-5.46,9.64-4.64v-.03Zm-6.47,12.13l-.19-.51c2.63-2.36,4.46-1.88,7.4,.12-1.42,2.33-4.45,3.07-6.78,1.66l-.08-.46c1.76,.29,3.56-.11,5.03-1.11-1.78-.49-3.67-.37-5.37,.33v-.03Zm-1.81-23.58c1.75,4.47-.37,9.51-4.79,11.38,0,0-.49-.42-.7-.37,2.23-2.22,3.55-5.19,3.7-8.33-2.55,1.97-4.38,4.73-5.19,7.85l-.86-.34c-.48-6.39,2.15-8.57,7.83-10.2Zm-19.13-16.02c1.31-.77,2.89-.93,4.34-.45,0,0,0-2.66,2.22-2.65,2.21,0,2.06,1.65,2.06,1.65,0,0,2.35-.26,1.97,1.27-.48,1.94-1.73,1.51-1.73,1.51,0,0,2.68-2.05-.84-2.02-.1-1.62-2.87-2-3.43,1.26-1.77-.44-4.05-.11-4.47,2.38-.3,1.36,.21,2.78,1.3,3.64-1.33,.14-2.58-.62-3.08-1.86,0,0-.83-3.52,1.64-4.81v.09Zm5.08,8.22c7.44,9.05-.13,16.08-.13,16.08,0,0-.79-.28-1.06-.03,1.61-3.75,1.73-7.98,.35-11.82-3.34,4.63-2.28,11.92-2.28,11.92l-1.22-.05c-3.67-7.38-1.6-11.16,4.35-16.12v.03Zm-17.36,4.63c9.67,4.43,6.55,12.92,6.55,12.92-.34,.05-.67,.17-.97,.36-.28-3.68-1.94-7.11-4.63-9.62-.8,4.97,3.03,10.44,3.03,10.44l-.97,.45c-5.9-4.56-5.77-8.38-3.02-14.61v.07Zm-10.84,10.74c4.81-.38,9.05,3.12,9.59,7.92,0,0-.56,.34-.62,.6-1.46-2.79-3.92-4.94-6.88-6,1.17,3,3.28,5.53,6.03,7.2l-.59,.72c-6.28-1.41-7.45-4.51-7.53-10.47v.03Zm4.63,15.25c-.08,.18-.15,.36-.21,.55-1.79-1.17-3.95-1.65-6.07-1.34,1.65,1.38,3.71,2.19,5.86,2.31l-.16,.59c-4.35,1.09-5.99-.31-7.75-3.74,5.8-2.83,8.33,1.63,8.33,1.63h0Zm-26.5,2.35c-1-.09-1.88,.64-1.98,1.63l.05,.29c-.83-.93-2.24-1.04-3.2-.25-.84,.76-.96,2.04-.28,2.95,0,0-2.23-.06-2.53,1.69-.38,1.27,.35,2.61,1.62,2.98h.03l.38,.08c1.05,.07,2.08-.28,2.86-.98,0,0-.45,1.3,1.53,2.3,.74,.37,1.62,.32,2.31-.13-.75,.55-1.31,1.32-1.6,2.2-.37,.82-.08,1.78,.68,2.26,.87,.53,1.96,.55,2.85,.04-1.49,1.56-3.87,1.81-4.61,1.19-.91-1.19-.93-2.84-.04-4.06-1.17-.06-2.07-1.05-2.02-2.22h0c-1.96,.85-4.24-.04-5.1-2l-.04-.25c-.42-1.26,.15-2.64,1.33-3.25,.49-.31,1.05-.5,1.63-.55-.77-.34-1.38-.96-1.71-1.74,0,0-.81-3.22,2.22-3.74,2.51-.42,3.19,.98,3.19,.98,0,0,2.06-1.86,3.88-.48,1.82,1.37,1.34,2.66,1.34,2.66-.33-1.15-1.46-1.88-2.64-1.7l-.14,.08Zm65.21,15.17c-1.9,.32-7.73,.39-15.96,1.63-8.23,1.24-19.33,3.07-21.13,2.66s-7.93-1.38-7.56-4.55c.36-3.17,5.74-3.38,5.74-3.38l.48-.84s-1.97,.5-4.44,1.02c-1.33,.15-2.45,1.09-2.82,2.38l-1.77-.04c.33-1.68,1.6-3.03,3.26-3.46,1.75-.29,9.75-2.74,9.75-2.74l2.22-1.07,4.14-1.12-3.25-1.33-31.09,3.45-.25-1.47,30.92-3.94,.99-1.3c3.51-2.48,7.69-3.83,11.99-3.87,3.94-.42,7.92,.02,11.67,1.28l.4,1.69-4.78,2.31,5.96-.54,2.18,1.48c2.33,.35,4.7,.39,7.05,.1,3.18-.08,6.21,1.33,8.2,3.81,0,0-2.07,1.03-2.79-.05-1.66-3.44-9.39-.89-9.39-.89l.21,.69c1.19,.06,2.39-.14,3.5-.59,2.11-.8,4.48,.1,5.54,2.1,1.54,2.49-6.98,6.26-8.88,6.52l-.07,.04Zm17.71,19.21c.03,.11,.05,.22,.06,.34,.36,2.18-.1,3.22-1.94,3.05h0c-.99-.03-1.9-.51-2.49-1.31,0,0,.79,1.76-2.12,2.15-2.91,.4-4.08-.83-4.44-1.69-.2-.99-.23-2.01-.1-3.01,0,0,.03,2.05,.87,2.74s1.45,1.62,3.05,.7c.93-.51,1.63-1.34,1.98-2.34,.6,.56,1.4,.86,2.22,.81,1.12-.19,.34-1.57-.51-1.88,.15-1.54,.22-3.68-2.85-3.41-1.58,.13,2.77-1.98,4.04-.25,.71,.77,.66,1.98-.11,2.69l-.12,.02c1.03-.31,2.12,.27,2.44,1.3v.09Zm-18.25-11.68l.04-1.05,.46,.5,.1,1.06,1.34-1.03,.65,.57-1.34,1.03,5.04,4.28,.63-.11,.72,.58-.29,.27,1.47-.25,1.04,.95-1.83,.2h0c.25,.4,.2,.92-.12,1.27-.34,.37-.89,.46-1.34,.22l.32,1.91-1.01-.8-.41-1.44-1.31,1.2-.89-.77,1.47-1.43-4.66-4-.03,1.52-.71-.55-.06-1.25-1.62,.98-.81-.68,1.85-1.14s-3.97-3.3-4.66-4.01c-1.45-1.27-.08-3.01,1.39-1.88,1.28,.9,4.55,3.77,4.55,3.77v.06Zm-17.89-16.02l-.77-.07-2.59,4.06,3.6-.45,.42-.67-2.09,.18,1.42-3.05Zm-4.04-3.53l.43,.68c1.45-.38,2.95-.55,4.45-.49l-1.31,2.11,.97,.11s.63-1.39,1.59-3.06c-2.06-.06-4.13,.16-6.13,.65Zm5.35,7.05l1.97-.33-.03-.89-1.54,.26-.4,.96Z" style="fill: #bababa;"/>
    <path d="M500.79,260.42c-.69-1.56-2.41-2.38-4.06-1.94,0,0,1.7-3.88-.98-5.55-1.51-.93-3.47-.64-4.64,.69-.68-.94-1.8-1.47-2.96-1.4-2.5,.21-3.04,1.63-3.04,1.63,.6-1.66,.3-3.51-.8-4.88-1.37-1.43-3.51-1.8-5.27-.9,1.48-.87,2.31-2.52,2.13-4.23-.4-1.63-1.79-2.82-3.46-2.97,1.67-3.01,1-6.77-1.59-9.02-4.46-4.27-10.13-1.01-10.13-1.01,.66-2.53-.41-5.2-2.63-6.59-3.89-2.49-6.4-.86-6.4-.86,0,0,1.24-4.36-2.47-6.41-3.71-2.05-7.17,1.53-7.17,1.53,0,0,1.76-2.85-.07-4.91-1.83-2.07-2.98-1.86-2.98-1.86,0,0,.47-4.08-2.45-4.9-1.59-.54-3.35-.23-4.66,.83,0,0-3.37-2.6-5.88,.5-2.51,3.1-.73,5.04-.73,5.04-2.47-1.42-5.58-1.08-7.69,.83-4.07,3.23-2.67,6.71-2.67,6.71,0,0-3.26-3.41-6.68-1.75-2,.97-3.17,3.09-2.92,5.29,0,0-2.55-2.34-4.8-.08-1.08,.98-1.16,2.66-.18,3.74,.14,.17,.32,.32,.51,.44,0,0-2.7-.39-3.69,4-.99,4.4,1.09,6.21,1.09,6.21-3.41-.07-6.35,2.39-6.89,5.76-1.2,6.05,3.24,7.8,3.24,7.8,0,0-3.98,2.29-3.03,6.25,.52,2.27,2.42,3.96,4.73,4.22-2.24,1.46-3.17,4.26-2.26,6.77,1.57,4.38,3.07,3.85,3.07,3.85-1.59,1.25-2.05,3.46-1.08,5.23,1.72,3.02,3.81,2.8,3.81,2.8,0,0-3.38,.45-3.7,2.37-.15,1.23,.26,2.47,1.11,3.37-.24-.23-2.72-2.73-4.85-.45-1.21,1.12-1.29,3.01-.18,4.23l.16,.16s-2.72,3.22,1.68,4.78c4.4,1.56,5.12-1.16,5.12-1.16,0,0,.68,3.85,3.21,3.95s3.84-4.66,3.84-4.66c0,0,.44,1.77,3.27,.48,2.27-1.03,2.51-2.4,2.51-2.9,.06,.81,.49,3.98,3.46,4.38,3.39,.49,4.5-1.58,4.5-1.58,.85,2.64,3.08,4.6,5.81,5.08,2.44,.61,5.01-.38,6.41-2.47,2.75,2.52,6.69,3.27,10.17,1.94,5.82-2.36,5.38-6.4,5.38-6.4,1.74,2.23,4.77,3.01,7.37,1.89,5.03-1.67,4.75-3.85,4.75-3.85,1.47,1.72,3.87,2.32,5.97,1.48,2.12-1.06,3.53-3.15,3.71-5.51,0,0,2.32,1.85,4.33,.43,1.16-.99,1.52-2.62,.89-4,0,0,2.89,.97,3.98-.83,.63-1.21,.58-2.67-.14-3.83,1.11,.8,2.65,.58,3.49-.49,1.11-1.35,.9-2.24,.72-2.65,.91,1.47,2.84,1.93,4.31,1.02,.81-.5,1.35-1.35,1.46-2.29,.52,1.03,1.78,1.45,2.81,.94h0l.25-.15c1.89-1.24-.02-5.44-.02-5.44,0,0,1.66,1.17,2.59-.33,.93-1.5-.7-3.99-.7-3.99,0,0,3.54-1.57,2-4.35Zm-32.66,3.41c1.78,.67,3.75,.62,5.5-.14-1.74-.89-3.72-1.18-5.65-.82l-.1-.57c3.15-1.92,5.04-1.05,7.72,1.66h0c-1.96,2.12-5.27,2.26-7.4,.3,0,0,.03-.31-.08-.42Zm7.06-10.84c-1.1,3.28-4.63,5.06-7.92,3.99,0,0-.03-.44-.19-.56,2.25-.17,4.35-1.17,5.89-2.82-2.26-.08-4.49,.58-6.33,1.89l-.29-.57c2.67-3.7,5.02-3.61,8.85-1.93Zm-5.94-13.53c1.22,4.51-1.41,9.16-5.91,10.43,0,0-.46-.48-.65-.44,2.4-1.87,4.01-4.57,4.51-7.58-2.65,1.61-4.69,4.06-5.81,6.95l-.78-.46c.31-6.1,2.99-7.83,8.64-8.9Zm-12.66-9.82c5.1,8.85-2.42,13.83-2.42,13.83,0,0-.64-.35-.96-.25,1.94-3,2.67-6.61,2.07-10.13-3.54,3.49-3.69,9.93-3.69,9.93l-1.04-.15c-2.12-6.86,.22-9.83,6.05-13.24h0Zm-22.83,15.3s-.75,.28-.72,.56c-1.27-3.64-3.86-6.66-7.25-8.49,.57,5.23,5.91,9.73,5.91,9.73l-.84,.71c-7.26-2.95-8.17-6.84-7.06-13.86,10.87,1.93,9.97,11.35,9.97,11.35Zm.46-33.54s-.12-1.65,2.11-1.6,2.16,2.72,2.16,2.72c1.46-.45,3.05-.24,4.35,.56,2.44,1.34,1.55,4.77,1.55,4.77-.53,1.23-1.81,1.95-3.14,1.78,1.12-.84,1.66-2.24,1.4-3.61-.36-2.5-2.61-2.89-4.43-2.49-.49-3.28-3.26-2.97-3.42-1.35-3.47-.1-.88,2.01-.88,2.01,0,0-1.27,.42-1.7-1.55h0c-.33-1.58,2-1.24,2-1.24Zm-8.91,41.7s-.46,.24-.4,.56c-1.76-2.04-4.2-3.37-6.87-3.74,1.51,2.25,3.71,3.94,6.27,4.82l-.43,.66c-5.56-.17-6.98-2.44-8.03-7.22,7.76-1.34,9.45,4.92,9.45,4.92Zm-15.94,39.35c-2.96-.43-2.07-2.21-2.07-2.21-.61,.77-1.54,1.23-2.53,1.24-1.89,.19-2.34-.89-1.93-3.08h0c.16-1.07,1.14-1.81,2.21-1.68l.34,.05c-.81-.69-.92-1.91-.23-2.72h0l.09-.1c1.3-1.64,5.63,.53,4.05,.36-3.07-.36-3.06,1.76-2.96,3.35-.84,.23-1.66,1.62-.56,1.87,.82,.06,1.64-.22,2.26-.76,.32,1.02,1.01,1.88,1.93,2.42,1.59,.96,2.22,.05,3.12-.63s.94-2.72,.94-2.72c.11,1,.05,2.02-.17,3-.4,.96-1.6,2.07-4.52,1.61Zm65.84-19.37c-1.02-3.92-9.64-2.92-9.64-2.92l.07,.77c1.23,.33,2.53,.4,3.79,.19,2.36-.43,4.67,.98,5.36,3.28,1.03,2.77-8.62,4.96-10.68,4.83-2.05-.13-8.21-1.2-17.07-1.59-8.86-.4-20.83-.87-22.65-1.62s-8.05-3.03-7-6.26c1.04-3.22,6.72-2.37,6.72-2.37l.67-.76s-2.15,.11-4.83,.14c-1.42-.12-2.78,.63-3.45,1.89l-1.82-.46c.69-1.71,2.3-2.86,4.14-2.95,1.86,0,10.72-.86,10.72-.86l2.55-.64,4.58-.3-3.18-1.98-33.19-2.67,.12-1.66,33.15,2.34,1.32-1.15c4.21-1.85,8.87-2.39,13.39-1.53,4.2,.37,8.28,1.65,11.94,3.74l.08,1.87-5.54,1.46,6.37,.64,1.92,1.99c2.36,.86,4.83,1.38,7.34,1.55,3.3,.6,6.14,2.69,7.69,5.66,0,0-2.31,.72-2.87-.57v-.04Zm20.97-9.58c-.74,2.01-2.97,3.04-4.98,2.3h0l-.27-.12c.04,1.13-.82,2.08-1.95,2.15l-.13-.02c.86,1.24,.8,2.9-.14,4.08-.71,.7-3.08,.38-4.58-1.21h0c.89,.54,2.01,.56,2.91,.05,.57-.51,1.05-.78,.72-2.26-.27-.89-.81-1.67-1.55-2.24,.69,.47,1.57,.53,2.32,.17,2.03-.95,1.59-2.27,1.59-2.27,.76,.7,1.76,1.07,2.78,1.04,1.34-.12,2.34-1.3,2.22-2.65v-.06h0c-.02-.12-.04-.24-.07-.36-.26-1.76-2.5-1.76-2.5-1.76,.77-.92,.65-2.29-.26-3.07-.95-.8-2.36-.73-3.22,.17,.1-1-.63-1.88-1.63-1.98h0l-.31-.05c-1.12-.16-2.2,.5-2.58,1.58,0,0-.49-1.24,1.4-2.63,1.88-1.39,3.9,.57,3.9,.57,0,0,.71-1.41,3.16-.92,3.03,.59,2.14,3.81,2.14,3.81-.34,.78-.97,1.39-1.76,1.71,.58,.06,1.14,.25,1.63,.57,1.18,.67,1.69,2.1,1.19,3.37h-.01Zm-57.02-24.96l-.91,1.18-.13-.94,.78-1.31-2.41,.04-.28-1.21,2.32-.1-2.19-9.19-.86-.32-.33-1.27,.57-.07-1.82-1.01-.41-1.97,2.28,1.3,.02-.1c.11-.87,.9-1.49,1.77-1.38,.52,.07,.97,.38,1.21,.84l1.17-2.52,.49,1.8-.77,2.05,2.41-.34,.37,1.64-2.89,.41,1.98,8.54,1.31-1.69,.36,1.23-.97,1.48,2.67,.24,.36,1.48-3.1-.25s1.79,7.13,1.98,8.54c.58,2.76-2.4,3.46-3.18,1.05-.47-2.08-1.83-8.21-1.83-8.21l.04,.07Zm7.54,26.31l1,.28s.95-1.24,2.25-2.7c-2.04-.54-4.14-.8-6.24-.77l.25,.78c1.51-.07,3.01,.11,4.47,.51l-1.73,1.9Zm.03,1.23l-.76-.2-3.4,3.48,3.67,.37,.5-.65-2.16-.22,2.14-2.77Zm1.08,2.94l-.5,.94,2.06,.09,.05-.96-1.61-.07Z" style="fill: #bababa;"/>
  </g>
  <g id="svg-8"/>
</svg>